<svg width="17" height="17" viewBox="0 0 17 17" fill="none" xmlns="http://www.w3.org/2000/svg">
<path fill-rule="evenodd" clip-rule="evenodd" d="M8.49589 17C13.1547 17 17 13.1528 17 8.5C17 3.8472 13.1464 0 8.48768 0C3.83712 0 0 3.8472 0 8.5C0 13.1528 3.84534 17 8.49589 17ZM3.76095 13.3902C2.49282 12.155 1.70904 10.4237 1.70904 8.5C1.70904 4.72679 4.7245 1.70164 8.48768 1.70164C12.2591 1.70164 15.291 4.72679 15.2992 8.5C15.3034 10.4219 14.5167 12.1518 13.2454 13.3867C12.9941 12.8932 12.6652 12.4375 12.2665 12.0385C11.2686 11.0402 9.91522 10.4793 8.50404 10.4793C7.09285 10.4793 5.73946 11.0402 4.74161 12.0385C4.34192 12.4384 4.0124 12.8953 3.76095 13.3902ZM4.89337 14.2794C5.93491 14.9309 7.16859 15.3066 8.49589 15.3066C9.82643 15.3066 11.0659 14.929 12.1127 14.2746C11.9179 13.8142 11.6351 13.3909 11.2749 13.0306C10.54 12.2953 9.54331 11.8823 8.50404 11.8823C7.46476 11.8823 6.46805 12.2953 5.73317 13.0306C5.37175 13.3922 5.0882 13.8171 4.89337 14.2794ZM6.27981 4.26212C6.86978 3.67187 7.66995 3.34026 8.50429 3.34026C9.33864 3.34026 10.1388 3.67187 10.7288 4.26212C11.3187 4.85238 11.6502 5.65293 11.6502 6.48768C11.6502 7.32243 11.3187 8.12298 10.7288 8.71324C10.1388 9.30349 9.33864 9.6351 8.50429 9.6351C7.66995 9.6351 6.86978 9.30349 6.27981 8.71324C5.68984 8.12298 5.3584 7.32243 5.3584 6.48768C5.3584 5.65293 5.68984 4.85238 6.27981 4.26212ZM8.50429 4.74323C8.04186 4.74323 7.59837 4.92702 7.27138 5.25417C6.94439 5.58132 6.76069 6.02502 6.76069 6.48768C6.76069 6.95034 6.94439 7.39404 7.27138 7.72119C7.59837 8.04834 8.04186 8.23213 8.50429 8.23213C8.96673 8.23213 9.41022 8.04834 9.73721 7.72119C10.0642 7.39404 10.2479 6.95034 10.2479 6.48768C10.2479 6.02502 10.0642 5.58132 9.73721 5.25417C9.41022 4.92702 8.96673 4.74323 8.50429 4.74323Z" fill="#333333"/>
</svg>
