<svg width="34" height="24" viewBox="0 0 34 24" fill="none" xmlns="http://www.w3.org/2000/svg">
<path d="M8.00058 6H26.0006M8.00058 6C7.06715 6 6.59928 6 6.24276 6.18166C5.92916 6.34144 5.67438 6.59623 5.51459 6.90983C5.33293 7.26635 5.33293 7.73341 5.33293 8.66683V17.3335C5.33293 19.2003 5.33293 20.1339 5.69624 20.847C6.01582 21.4742 6.52539 21.9841 7.15259 22.3037C7.86494 22.6667 8.79792 22.6667 10.6611 22.6667H23.3375C25.2007 22.6667 26.1323 22.6667 26.8447 22.3037C27.4719 21.9841 27.9837 21.4741 28.3033 20.8469C28.6663 20.1345 28.6663 19.2027 28.6663 17.3395V8.65171C28.6663 7.72835 28.6663 7.26442 28.4856 6.90983C28.3258 6.59623 28.0699 6.34144 27.7563 6.18166C27.3997 6 26.934 6 26.0006 6M8.00058 6H5.29178C3.87662 6 3.16946 6 2.76783 5.7526C2.23185 5.42245 1.92796 4.81799 1.9817 4.19079C2.022 3.72039 2.44321 3.15148 3.28703 2.01232C3.53109 1.68285 3.65316 1.51806 3.80254 1.39225C4.00173 1.2245 4.2381 1.10537 4.49146 1.04516C4.68148 1 4.88544 1 5.2955 1H28.7028C29.1129 1 29.3173 1 29.5074 1.04516C29.7607 1.10537 29.997 1.2245 30.1962 1.39225C30.3456 1.51806 30.4681 1.68207 30.7122 2.01156C31.556 3.1507 31.9779 3.72029 32.0182 4.19069C32.0719 4.8179 31.7669 5.42245 31.231 5.7526C30.8293 6 30.1205 6 28.7053 6H26.0006M13.6663 14.3333H20.3329" stroke="#333333" stroke-width="2" stroke-linecap="round" stroke-linejoin="round"/>
</svg>
