<svg width="17" height="17" viewBox="0 0 17 17" fill="none" xmlns="http://www.w3.org/2000/svg">
<path d="M4.41002 0.226327C4.10825 -0.0754422 3.61899 -0.0754422 3.31722 0.226327C3.01545 0.528095 3.01545 1.01736 3.31722 1.31913L4.31628 2.31818H2.31818C1.70336 2.31818 1.11372 2.56242 0.67898 2.99716C0.244236 3.43191 0 4.02155 0 4.63637V12.3636C0 12.9785 0.244236 13.5681 0.67898 14.0028C1.11372 14.4376 1.70336 14.6818 2.31818 14.6818H7.72727C8.15404 14.6818 8.5 14.3359 8.5 13.9091C8.5 13.4823 8.15404 13.1364 7.72727 13.1364H2.31818C2.11324 13.1364 1.9167 13.055 1.77178 12.91C1.62687 12.7651 1.54545 12.5686 1.54545 12.3636V4.63637C1.54545 4.43143 1.62687 4.23488 1.77178 4.08996C1.9167 3.94505 2.11324 3.86364 2.31818 3.86364H4.31627L3.31722 4.86269C3.01545 5.16446 3.01545 5.65372 3.31722 5.95549C3.61899 6.25726 4.10825 6.25726 4.41002 5.95549L6.72515 3.64036C6.73583 3.6298 6.74621 3.61893 6.75626 3.60776C6.81215 3.54574 6.85623 3.47686 6.88849 3.40401C6.93095 3.3083 6.95455 3.20236 6.95455 3.09091C6.95455 2.98029 6.9313 2.87511 6.88943 2.77996C6.85619 2.70425 6.8102 2.63278 6.75148 2.5688C6.7431 2.55967 6.73451 2.55073 6.72571 2.54201L4.41002 0.226327Z" fill="#333333"/>
<path d="M8.5 3.09091C8.5 2.66415 8.84596 2.31818 9.27273 2.31818H14.6818C15.2966 2.31818 15.8863 2.56242 16.321 2.99716C16.7558 3.43191 17 4.02155 17 4.63637V12.3636C17 12.9785 16.7558 13.5681 16.321 14.0028C15.8863 14.4376 15.2966 14.6818 14.6818 14.6818H12.6837L13.6828 15.6809C13.9845 15.9826 13.9845 16.4719 13.6828 16.7737C13.381 17.0754 12.8917 17.0754 12.59 16.7737L10.2718 14.4555C10.1288 14.3125 10.0536 14.1275 10.0461 13.9402C10.0452 13.9195 10.0452 13.8987 10.0461 13.8779C10.0497 13.7875 10.0688 13.7011 10.1008 13.6213C10.1385 13.5272 10.1955 13.4389 10.2718 13.3627L12.59 11.0445C12.8917 10.7427 13.381 10.7427 13.6828 11.0445C13.9845 11.3463 13.9845 11.8355 13.6828 12.1373L12.6837 13.1364H14.6818C14.8868 13.1364 15.0833 13.055 15.2282 12.91C15.3731 12.7651 15.4545 12.5686 15.4545 12.3636V4.63637C15.4545 4.43143 15.3731 4.23488 15.2282 4.08996C15.0833 3.94505 14.8868 3.86364 14.6818 3.86364H9.27273C8.84596 3.86364 8.5 3.51768 8.5 3.09091Z" fill="#333333"/>
<path fill-rule="evenodd" clip-rule="evenodd" d="M8.50001 5.40908C6.79295 5.40908 5.40911 6.79293 5.40911 8.49999C5.40911 10.2071 6.79295 11.5909 8.50001 11.5909C10.2071 11.5909 11.5909 10.2071 11.5909 8.49999C11.5909 6.79293 10.2071 5.40908 8.50001 5.40908ZM6.95456 8.49999C6.95456 7.64646 7.64648 6.95454 8.50001 6.95454C9.35355 6.95454 10.0455 7.64646 10.0455 8.49999C10.0455 9.35352 9.35355 10.0454 8.50001 10.0454C7.64648 10.0454 6.95456 9.35352 6.95456 8.49999Z" fill="#333333"/>
</svg>
