<svg width="34" height="33" viewBox="0 0 34 33" fill="none" xmlns="http://www.w3.org/2000/svg">
<path d="M14.4071 25.9897C14.6188 25.9904 14.8279 25.9453 15.0191 25.8577C15.2103 25.7701 15.3788 25.6423 15.5121 25.4836L22.3546 17.276C22.563 17.0312 22.6769 16.7242 22.6769 16.4074C22.6769 16.0905 22.563 15.7835 22.3546 15.5387L15.2713 7.33115C15.0308 7.05179 14.6853 6.87612 14.3107 6.84277C13.9361 6.80942 13.5631 6.92112 13.2738 7.15332C12.9845 7.38551 12.8026 7.71916 12.768 8.08088C12.7335 8.44259 12.8492 8.80274 13.0896 9.0821L19.4221 16.4142L13.3021 23.7463C13.1289 23.9471 13.0189 24.1916 12.985 24.4509C12.9512 24.7102 12.995 24.9734 13.1112 25.2094C13.2275 25.4454 13.4113 25.6443 13.641 25.7826C13.8706 25.9209 14.1365 25.9928 14.4071 25.9897Z" fill="#333333"/>
</svg>
