<svg width="100" height="43" viewBox="0 0 100 43" fill="none" xmlns="http://www.w3.org/2000/svg">
<g filter="url(#filter0_d_2345_8317)">
<rect x="4" width="92" height="35" rx="17.5" fill="white"/>
</g>
<path d="M37.0837 13.004C37.9704 13.004 38.7124 13.088 39.3097 13.256C39.9164 13.4147 40.3691 13.6807 40.6677 14.054C40.9757 14.418 41.1297 14.9127 41.1297 15.538C41.1297 15.9113 41.0691 16.252 40.9477 16.56C40.8264 16.868 40.6491 17.12 40.4157 17.316C40.1917 17.512 39.9164 17.638 39.5897 17.694V17.764C39.9257 17.8293 40.2291 17.946 40.4997 18.114C40.7704 18.282 40.9851 18.5247 41.1437 18.842C41.3024 19.1593 41.3817 19.5793 41.3817 20.102C41.3817 20.7087 41.2324 21.2313 40.9337 21.67C40.6444 22.0993 40.2244 22.4307 39.6737 22.664C39.1231 22.888 38.4697 23 37.7137 23H33.9757V13.004H37.0837ZM37.3217 16.966C37.9377 16.966 38.3624 16.868 38.5957 16.672C38.8384 16.476 38.9597 16.1913 38.9597 15.818C38.9597 15.4353 38.8197 15.16 38.5397 14.992C38.2597 14.824 37.8164 14.74 37.2097 14.74H36.0897V16.966H37.3217ZM36.0897 18.646V21.25H37.4757C38.1104 21.25 38.5537 21.1287 38.8057 20.886C39.0577 20.634 39.1837 20.3027 39.1837 19.892C39.1837 19.64 39.1277 19.4207 39.0157 19.234C38.9131 19.0473 38.7311 18.9027 38.4697 18.8C38.2084 18.6973 37.8537 18.646 37.4057 18.646H36.0897ZM46.63 15.202C47.6567 15.202 48.4407 15.426 48.982 15.874C49.5327 16.3127 49.808 16.9893 49.808 17.904V23H48.352L47.946 21.964H47.89C47.6753 22.2347 47.4513 22.4587 47.218 22.636C46.994 22.8133 46.7327 22.9393 46.434 23.014C46.1447 23.098 45.7853 23.14 45.356 23.14C44.908 23.14 44.502 23.056 44.138 22.888C43.7833 22.7107 43.5033 22.4447 43.298 22.09C43.0927 21.726 42.99 21.2687 42.99 20.718C42.99 19.906 43.2747 19.3087 43.844 18.926C44.4133 18.534 45.2673 18.3193 46.406 18.282L47.736 18.24V17.904C47.736 17.5027 47.6287 17.2087 47.414 17.022C47.2087 16.8353 46.9193 16.742 46.546 16.742C46.1727 16.742 45.8087 16.798 45.454 16.91C45.0993 17.0127 44.7447 17.1433 44.39 17.302L43.704 15.888C44.1147 15.6733 44.5673 15.5053 45.062 15.384C45.566 15.2627 46.0887 15.202 46.63 15.202ZM46.924 19.486C46.252 19.5047 45.7853 19.626 45.524 19.85C45.2627 20.074 45.132 20.368 45.132 20.732C45.132 21.0493 45.2253 21.278 45.412 21.418C45.5987 21.5487 45.8413 21.614 46.14 21.614C46.588 21.614 46.966 21.4833 47.274 21.222C47.582 20.9513 47.736 20.5733 47.736 20.088V19.458L46.924 19.486ZM55.3312 23.14C54.5752 23.14 53.9312 23.0047 53.3992 22.734C52.8672 22.454 52.4612 22.0247 52.1812 21.446C51.9012 20.8673 51.7612 20.1253 51.7612 19.22C51.7612 18.2867 51.9199 17.526 52.2372 16.938C52.5545 16.35 52.9932 15.916 53.5532 15.636C54.1225 15.356 54.7759 15.216 55.5132 15.216C56.0359 15.216 56.4885 15.2673 56.8712 15.37C57.2632 15.4727 57.6039 15.594 57.8932 15.734L57.2772 17.344C56.9505 17.2133 56.6425 17.106 56.3532 17.022C56.0732 16.938 55.7932 16.896 55.5132 16.896C55.1492 16.896 54.8459 16.9847 54.6032 17.162C54.3605 17.33 54.1785 17.5867 54.0572 17.932C53.9452 18.268 53.8892 18.6927 53.8892 19.206C53.8892 19.71 53.9499 20.13 54.0712 20.466C54.2019 20.7927 54.3885 21.04 54.6312 21.208C54.8739 21.3667 55.1679 21.446 55.5132 21.446C55.9519 21.446 56.3392 21.39 56.6752 21.278C57.0112 21.1567 57.3379 20.9933 57.6552 20.788V22.566C57.3379 22.7713 57.0019 22.916 56.6472 23C56.3019 23.0933 55.8632 23.14 55.3312 23.14ZM61.7806 17.12C61.7806 17.4093 61.7666 17.6987 61.7386 17.988C61.7199 18.268 61.6966 18.5527 61.6686 18.842H61.6966C61.7899 18.7113 61.8833 18.5807 61.9766 18.45C62.0793 18.3193 62.1819 18.1887 62.2846 18.058C62.3873 17.9273 62.4946 17.8013 62.6066 17.68L64.7486 15.356H67.1006L64.0626 18.674L67.2826 23H64.8746L62.6766 19.906L61.7806 20.62V23H59.6946V12.36H61.7806V17.12Z" fill="black"/>
<defs>
<filter id="filter0_d_2345_8317" x="0" y="0" width="100" height="43" filterUnits="userSpaceOnUse" color-interpolation-filters="sRGB">
<feFlood flood-opacity="0" result="BackgroundImageFix"/>
<feColorMatrix in="SourceAlpha" type="matrix" values="0 0 0 0 0 0 0 0 0 0 0 0 0 0 0 0 0 0 127 0" result="hardAlpha"/>
<feOffset dy="4"/>
<feGaussianBlur stdDeviation="2"/>
<feComposite in2="hardAlpha" operator="out"/>
<feColorMatrix type="matrix" values="0 0 0 0 0 0 0 0 0 0 0 0 0 0 0 0 0 0 0.25 0"/>
<feBlend mode="normal" in2="BackgroundImageFix" result="effect1_dropShadow_2345_8317"/>
<feBlend mode="normal" in="SourceGraphic" in2="effect1_dropShadow_2345_8317" result="shape"/>
</filter>
</defs>
</svg>
