<svg width="337" height="337" viewBox="0 0 337 337" fill="none" xmlns="http://www.w3.org/2000/svg">
<path d="M115.692 59.1442C117.763 61.1948 119.944 63.1248 122.371 64.7384C134.747 72.9706 171.573 92.7785 229.978 84.6832C302.953 74.5685 292.248 147.941 281.747 167.497C271.246 187.052 232.627 222.899 229.384 240.86C226.14 258.821 240.02 307.878 207.498 293.157C174.976 278.437 156.189 243.958 113.501 247.966C70.8138 251.973 40.6498 233.057 59.5459 199.261C78.442 165.464 101.034 143.656 72.198 106.011C44.1628 69.4127 91.3853 35.0716 115.692 59.1442Z" fill="#FFEFD1"/>
<path d="M189.739 97.0596C189.198 96.5147 188.889 95.7817 188.875 95.0139C188.862 94.2461 189.146 93.5028 189.668 92.9395L208.923 72.1567C209.196 71.8623 209.525 71.6261 209.891 71.4623C210.258 71.2985 210.654 71.2105 211.055 71.2036C211.456 71.1966 211.855 71.2709 212.226 71.4219C212.598 71.5729 212.936 71.7975 213.218 72.0822L214.881 73.7561C215.163 74.0409 215.386 74.3799 215.534 74.7527C215.682 75.1256 215.754 75.5246 215.744 75.9258C215.734 76.327 215.643 76.7221 215.477 77.0873C215.311 77.4525 215.072 77.7803 214.776 78.051L193.859 97.1599C193.292 97.678 192.547 97.9568 191.779 97.9382C191.011 97.9195 190.28 97.6047 189.739 97.0596Z" fill="#AE621A"/>
<path d="M177.551 89.9755C177.091 89.7714 176.727 89.3974 176.536 88.9315C176.345 88.4656 176.342 87.9439 176.527 87.4754L183.341 70.1932C183.438 69.9484 183.583 69.7257 183.767 69.5384C183.952 69.3511 184.173 69.2031 184.416 69.1033C184.66 69.0035 184.921 68.954 185.184 68.9577C185.447 68.9614 185.707 69.0183 185.948 69.1249L187.362 69.7518C187.602 69.8584 187.819 70.0125 187.998 70.205C188.178 70.3974 188.316 70.6242 188.406 70.8716C188.495 71.119 188.534 71.382 188.519 71.6447C188.505 71.9075 188.437 72.1645 188.321 72.4004L180.093 89.0558C179.87 89.5074 179.481 89.8552 179.007 90.0266C178.533 90.198 178.012 90.1797 177.551 89.9755Z" fill="#AE621A"/>
<path d="M165.152 92.8003C163.581 93.083 162.006 91.7355 161.579 89.7457L154.022 54.4139C153.571 52.3025 154.582 50.2943 156.248 49.994L158.569 49.5761C160.235 49.2762 161.884 50.8062 162.197 52.9419L167.434 88.6914C167.729 90.7055 166.722 92.5175 165.152 92.8003Z" fill="#AE621A"/>
<path d="M287.307 126.051L253.975 121.754C253.414 121.694 252.848 121.807 252.352 122.077C251.857 122.347 251.455 122.762 251.202 123.266L242.338 140.766L205.238 214.967C204.843 215.751 204.183 216.368 203.374 216.709C202.566 217.05 201.662 217.091 200.826 216.826L100.123 184.682C99.8449 184.594 99.55 184.572 99.2624 184.62C98.9747 184.667 98.7024 184.782 98.468 184.956C98.2335 185.129 98.0435 185.355 97.9136 185.616C97.7838 185.878 97.7178 186.166 97.721 186.457L97.7672 190.639C97.7728 191.22 97.9618 191.785 98.3071 192.253C98.6525 192.721 99.1366 193.068 99.6906 193.244L206.237 227.252C207.425 227.631 208.491 228.318 209.328 229.242C210.166 230.166 210.743 231.295 211.004 232.514L211.039 232.68C211.966 237.771 206.949 241.95 202.005 240.45L85.1735 203.11C84.5742 202.92 84.058 202.53 83.7102 202.006C83.3624 201.482 83.204 200.855 83.2612 200.229L92.4047 100.381C92.4506 99.8664 92.6043 99.367 92.8558 98.9155C93.1073 98.4639 93.451 98.0703 93.8645 97.7602C94.2779 97.4501 94.752 97.2304 95.2559 97.1154C95.7598 97.0004 96.2823 96.9926 96.7894 97.0926L236.752 124.473L245.767 106.557C246.027 106.051 246.436 105.636 246.94 105.37C247.443 105.104 248.016 104.998 248.581 105.068L289.397 110.295C289.759 110.34 290.109 110.457 290.425 110.639C290.742 110.82 291.019 111.062 291.242 111.352C291.464 111.641 291.627 111.972 291.72 112.325C291.814 112.677 291.837 113.045 291.787 113.407L290.395 123.673C290.299 124.397 289.92 125.053 289.341 125.499C288.763 125.944 288.031 126.143 287.307 126.051Z" fill="#BA8545"/>
<path d="M98.0486 167.587L109.453 171.227L120.393 115.753L102.885 113.064L98.0486 167.587Z" fill="#FFEFD1"/>
<path d="M187.532 196.149L198.937 199.789L228.431 137.67L215.869 134.627L187.532 196.149Z" fill="#FFEFD1"/>
<path d="M143.667 182.148L154.195 185.508L176.745 126.973L159.517 123.407L143.667 182.148Z" fill="#FFEFD1"/>
<path d="M130.323 117.956L147.552 121.521L132.263 178.508L120.858 174.867L130.323 117.956Z" fill="#FFEFD1"/>
<path d="M205.061 132.144L187.833 128.578L166.477 189.428L177.005 192.788L205.061 132.144Z" fill="#FFEFD1"/>
<path d="M100.249 239.159C107.624 239.159 113.602 233.181 113.602 225.806C113.602 218.431 107.624 212.453 100.249 212.453C92.8748 212.453 86.8965 218.431 86.8965 225.806C86.8965 233.181 92.8748 239.159 100.249 239.159Z" fill="#B66315"/>
<path d="M183.592 265.761C190.966 265.761 196.945 259.782 196.945 252.408C196.945 245.033 190.966 239.055 183.592 239.055C176.217 239.055 170.239 245.033 170.239 252.408C170.239 259.782 176.217 265.761 183.592 265.761Z" fill="#B66315"/>
<path d="M293.303 109.743L258.125 105.339C257.93 105.314 257.752 105.453 257.728 105.648L255.596 122.679C255.571 122.874 255.71 123.052 255.905 123.076L291.082 127.48C291.277 127.504 291.455 127.366 291.479 127.171L293.612 110.14C293.636 109.945 293.498 109.767 293.303 109.743Z" fill="#B66315"/>
</svg>
