<svg width="24" height="24" viewBox="0 0 24 24" fill="none" xmlns="http://www.w3.org/2000/svg">
<path fill-rule="evenodd" clip-rule="evenodd" d="M9.5 3C10.0523 3 10.5 3.44772 10.5 4V7.5C10.5 9.15685 9.15685 10.5 7.5 10.5H4C3.44772 10.5 3 10.0523 3 9.5C3 8.94772 3.44772 8.5 4 8.5H7.5C8.05228 8.5 8.5 8.05228 8.5 7.5V4C8.5 3.44772 8.94772 3 9.5 3ZM15.5 3C16.0523 3 16.5 3.44772 16.5 4V7.5C16.5 8.05228 16.9477 8.5 17.5 8.5H21C21.5523 8.5 22 8.94772 22 9.5C22 10.0523 21.5523 10.5 21 10.5H17.5C15.8431 10.5 14.5 9.15685 14.5 7.5V4C14.5 3.44772 14.9477 3 15.5 3ZM3 15.5C3 14.9477 3.44772 14.5 4 14.5H7.5C9.15685 14.5 10.5 15.8431 10.5 17.5V21C10.5 21.5523 10.0523 22 9.5 22C8.94772 22 8.5 21.5523 8.5 21V17.5C8.5 16.9477 8.05228 16.5 7.5 16.5H4C3.44772 16.5 3 16.0523 3 15.5ZM17.5 16.5C16.9477 16.5 16.5 16.9477 16.5 17.5V21C16.5 21.5523 16.0523 22 15.5 22C14.9477 22 14.5 21.5523 14.5 21V17.5C14.5 15.8431 15.8431 14.5 17.5 14.5H21C21.5523 14.5 22 14.9477 22 15.5C22 16.0523 21.5523 16.5 21 16.5H17.5Z" fill="white"/>
</svg>
