<svg width="100" height="43" viewBox="0 0 100 43" fill="none" xmlns="http://www.w3.org/2000/svg">
<g filter="url(#filter0_d_2343_8314)">
<rect x="4" width="92" height="35" rx="17.5" fill="white"/>
</g>
<path d="M22.502 15.628C22.1007 15.628 21.7413 15.7073 21.424 15.866C21.116 16.0247 20.8547 16.2533 20.64 16.552C20.4253 16.8413 20.262 17.196 20.15 17.616C20.0473 18.036 19.996 18.5073 19.996 19.03C19.996 19.7393 20.08 20.346 20.248 20.85C20.4253 21.3447 20.7007 21.7227 21.074 21.984C21.4473 22.2453 21.9233 22.376 22.502 22.376C22.9127 22.376 23.3187 22.3293 23.72 22.236C24.1307 22.1427 24.574 22.012 25.05 21.844V23.622C24.6113 23.7993 24.1773 23.93 23.748 24.014C23.3187 24.098 22.838 24.14 22.306 24.14C21.2793 24.14 20.43 23.93 19.758 23.51C19.0953 23.0807 18.6053 22.4833 18.288 21.718C17.9707 20.9433 17.812 20.0427 17.812 19.016C17.812 18.26 17.9147 17.5693 18.12 16.944C18.3253 16.3093 18.624 15.7633 19.016 15.306C19.4173 14.8487 19.9073 14.494 20.486 14.242C21.074 13.99 21.746 13.864 22.502 13.864C22.9967 13.864 23.4913 13.9293 23.986 14.06C24.49 14.1813 24.9707 14.3493 25.428 14.564L24.742 16.286C24.3687 16.1087 23.9907 15.9547 23.608 15.824C23.2347 15.6933 22.866 15.628 22.502 15.628ZM34.2301 20.164C34.2301 20.7987 34.1414 21.3633 33.9641 21.858C33.7961 22.3527 33.5487 22.7727 33.2221 23.118C32.9047 23.454 32.5174 23.7107 32.0601 23.888C31.6027 24.056 31.0847 24.14 30.5061 24.14C29.9741 24.14 29.4794 24.056 29.0221 23.888C28.5741 23.7107 28.1867 23.454 27.8601 23.118C27.5334 22.7727 27.2767 22.3527 27.0901 21.858C26.9127 21.3633 26.8241 20.7987 26.8241 20.164C26.8241 19.3147 26.9734 18.6007 27.2721 18.022C27.5707 17.434 28.0001 16.986 28.5601 16.678C29.1201 16.37 29.7827 16.216 30.5481 16.216C31.2667 16.216 31.9014 16.37 32.4521 16.678C33.0027 16.986 33.4367 17.434 33.7541 18.022C34.0714 18.6007 34.2301 19.3147 34.2301 20.164ZM28.9521 20.164C28.9521 20.668 29.0034 21.0927 29.1061 21.438C29.2181 21.774 29.3907 22.0307 29.6241 22.208C29.8574 22.376 30.1607 22.46 30.5341 22.46C30.9074 22.46 31.2061 22.376 31.4301 22.208C31.6634 22.0307 31.8314 21.774 31.9341 21.438C32.0461 21.0927 32.1021 20.668 32.1021 20.164C32.1021 19.66 32.0461 19.24 31.9341 18.904C31.8314 18.568 31.6634 18.316 31.4301 18.148C31.1967 17.98 30.8934 17.896 30.5201 17.896C29.9694 17.896 29.5681 18.0873 29.3161 18.47C29.0734 18.8433 28.9521 19.408 28.9521 20.164ZM40.574 16.216C41.3954 16.216 42.0534 16.44 42.548 16.888C43.0427 17.3267 43.29 18.036 43.29 19.016V24H41.204V19.534C41.204 18.9833 41.106 18.5727 40.91 18.302C40.714 18.022 40.4014 17.882 39.972 17.882C39.3374 17.882 38.9034 18.1013 38.67 18.54C38.4367 18.9693 38.32 19.59 38.32 20.402V24H36.234V16.356H37.83L38.11 17.336H38.222C38.39 17.0747 38.5954 16.8647 38.838 16.706C39.0807 16.538 39.3514 16.4167 39.65 16.342C39.9487 16.258 40.2567 16.216 40.574 16.216ZM48.9352 22.474C49.1685 22.474 49.3925 22.4507 49.6072 22.404C49.8219 22.3573 50.0365 22.3013 50.2512 22.236V23.79C50.0272 23.8833 49.7472 23.9627 49.4112 24.028C49.0845 24.1027 48.7252 24.14 48.3332 24.14C47.8759 24.14 47.4652 24.0653 47.1012 23.916C46.7465 23.7667 46.4619 23.51 46.2472 23.146C46.0419 22.7727 45.9392 22.2593 45.9392 21.606V17.924H44.9452V17.042L46.0932 16.342L46.6952 14.732H48.0252V16.356H50.1672V17.924H48.0252V21.606C48.0252 21.8953 48.1092 22.1147 48.2772 22.264C48.4452 22.404 48.6645 22.474 48.9352 22.474ZM54.1515 16.356V24H52.0655V16.356H54.1515ZM53.1155 13.36C53.4235 13.36 53.6895 13.4347 53.9135 13.584C54.1375 13.724 54.2495 13.99 54.2495 14.382C54.2495 14.7647 54.1375 15.0307 53.9135 15.18C53.6895 15.3293 53.4235 15.404 53.1155 15.404C52.7982 15.404 52.5275 15.3293 52.3035 15.18C52.0888 15.0307 51.9815 14.7647 51.9815 14.382C51.9815 13.99 52.0888 13.724 52.3035 13.584C52.5275 13.4347 52.7982 13.36 53.1155 13.36ZM60.9511 16.216C61.7725 16.216 62.4305 16.44 62.9251 16.888C63.4198 17.3267 63.6671 18.036 63.6671 19.016V24H61.5811V19.534C61.5811 18.9833 61.4831 18.5727 61.2871 18.302C61.0911 18.022 60.7785 17.882 60.3491 17.882C59.7145 17.882 59.2805 18.1013 59.0471 18.54C58.8138 18.9693 58.6971 19.59 58.6971 20.402V24H56.6111V16.356H58.2071L58.4871 17.336H58.5991C58.7671 17.0747 58.9725 16.8647 59.2151 16.706C59.4578 16.538 59.7285 16.4167 60.0271 16.342C60.3258 16.258 60.6338 16.216 60.9511 16.216ZM73.1063 16.356V24H71.5103L71.2303 23.02H71.1183C70.9596 23.2813 70.7543 23.496 70.5023 23.664C70.2596 23.8227 69.989 23.9393 69.6903 24.014C69.3916 24.098 69.0836 24.14 68.7663 24.14C68.225 24.14 67.749 24.042 67.3383 23.846C66.9276 23.65 66.6103 23.3467 66.3863 22.936C66.1623 22.5253 66.0503 21.9933 66.0503 21.34V16.356H68.1363V20.822C68.1363 21.3633 68.2343 21.774 68.4303 22.054C68.6263 22.334 68.939 22.474 69.3683 22.474C69.7976 22.474 70.129 22.376 70.3623 22.18C70.605 21.984 70.773 21.6993 70.8663 21.326C70.969 20.9527 71.0203 20.4953 71.0203 19.954V16.356H73.1063ZM78.7235 16.216C79.4328 16.216 80.0395 16.3513 80.5435 16.622C81.0568 16.8927 81.4535 17.2847 81.7335 17.798C82.0135 18.3113 82.1535 18.9413 82.1535 19.688V20.696H77.2255C77.2442 21.284 77.4168 21.746 77.7435 22.082C78.0795 22.418 78.5415 22.586 79.1295 22.586C79.6242 22.586 80.0722 22.5393 80.4735 22.446C80.8748 22.3433 81.2902 22.1893 81.7195 21.984V23.594C81.3462 23.7807 80.9495 23.916 80.5295 24C80.1188 24.0933 79.6195 24.14 79.0315 24.14C78.2662 24.14 77.5895 24 77.0015 23.72C76.4135 23.4307 75.9515 22.9967 75.6155 22.418C75.2795 21.8393 75.1115 21.1113 75.1115 20.234C75.1115 19.338 75.2608 18.596 75.5595 18.008C75.8675 17.4107 76.2922 16.9627 76.8335 16.664C77.3748 16.3653 78.0048 16.216 78.7235 16.216ZM78.7375 17.7C78.3362 17.7 78.0002 17.8307 77.7295 18.092C77.4682 18.3533 77.3142 18.7593 77.2675 19.31H80.1935C80.1935 19.002 80.1375 18.7267 80.0255 18.484C79.9228 18.2413 79.7642 18.05 79.5495 17.91C79.3348 17.77 79.0642 17.7 78.7375 17.7Z" fill="black"/>
<defs>
<filter id="filter0_d_2343_8314" x="0" y="0" width="100" height="43" filterUnits="userSpaceOnUse" color-interpolation-filters="sRGB">
<feFlood flood-opacity="0" result="BackgroundImageFix"/>
<feColorMatrix in="SourceAlpha" type="matrix" values="0 0 0 0 0 0 0 0 0 0 0 0 0 0 0 0 0 0 127 0" result="hardAlpha"/>
<feOffset dy="4"/>
<feGaussianBlur stdDeviation="2"/>
<feComposite in2="hardAlpha" operator="out"/>
<feColorMatrix type="matrix" values="0 0 0 0 0 0 0 0 0 0 0 0 0 0 0 0 0 0 0.25 0"/>
<feBlend mode="normal" in2="BackgroundImageFix" result="effect1_dropShadow_2343_8314"/>
<feBlend mode="normal" in="SourceGraphic" in2="effect1_dropShadow_2343_8314" result="shape"/>
</filter>
</defs>
</svg>
