<svg width="17" height="17" viewBox="0 0 17 17" fill="none" xmlns="http://www.w3.org/2000/svg">
<path fill-rule="evenodd" clip-rule="evenodd" d="M13.9917 1.78937C14.1533 1.62777 14.3725 1.53698 14.601 1.53698C14.8295 1.53698 15.0487 1.62777 15.2103 1.78937C15.3719 1.95098 15.4627 2.17016 15.4627 2.3987C15.4627 2.62724 15.3719 2.84643 15.2103 3.00803L8.0602 10.1582L6.43532 10.5644L6.84154 8.93951L13.9917 1.78937ZM14.601 0C13.9648 0 13.3547 0.25272 12.9049 0.702563L5.60422 8.00321C5.50573 8.1017 5.43586 8.2251 5.40208 8.36023L4.63359 11.4342C4.56812 11.6961 4.64485 11.9731 4.83573 12.164C5.0266 12.3549 5.30363 12.4316 5.56552 12.3661L8.63947 11.5976C8.7746 11.5638 8.898 11.494 8.99649 11.3955L16.2971 4.09484C16.747 3.645 16.9997 3.03488 16.9997 2.3987C16.9997 1.76253 16.747 1.15241 16.2971 0.702563C15.8473 0.25272 15.2372 0 14.601 0ZM2.30547 1.63018C1.69402 1.63018 1.10761 1.87308 0.675256 2.30544C0.242897 2.7378 0 3.3242 0 3.93565V14.6945C0 15.3059 0.242897 15.8924 0.675256 16.3247C1.10761 16.7571 1.69402 17 2.30547 17H13.0643C13.6758 17 14.2622 16.7571 14.6945 16.3247C15.1269 15.8924 15.3698 15.3059 15.3698 14.6945V9.31507C15.3698 8.89065 15.0257 8.54659 14.6013 8.54659C14.1769 8.54659 13.8328 8.89065 13.8328 9.31507V14.6945C13.8328 14.8983 13.7518 15.0938 13.6077 15.2379C13.4636 15.382 13.2681 15.463 13.0643 15.463H2.30547C2.10165 15.463 1.90618 15.382 1.76206 15.2379C1.61794 15.0938 1.53698 14.8983 1.53698 14.6945V3.93565C1.53698 3.73183 1.61794 3.53637 1.76206 3.39225C1.90618 3.24813 2.10165 3.16716 2.30547 3.16716H7.68489C8.10932 3.16716 8.45338 2.8231 8.45338 2.39867C8.45338 1.97425 8.10932 1.63018 7.68489 1.63018H2.30547Z" fill="#333333"/>
</svg>
