<svg width="28" height="30" viewBox="0 0 28 30" fill="none" xmlns="http://www.w3.org/2000/svg">
<g filter="url(#filter0_d_2382_10991)">
<path d="M10.5 20H7C6.44772 20 6 19.5523 6 19V15.5C6 14.9477 5.55228 14.5 5 14.5C4.44772 14.5 4 14.9477 4 15.5V19C4 20.6569 5.34315 22 7 22H10.5C11.0523 22 11.5 21.5523 11.5 21C11.5 20.4477 11.0523 20 10.5 20Z" fill="white"/>
<path d="M23 14.5C22.4477 14.5 22 14.9477 22 15.5V19C22 19.5523 21.5523 20 21 20H17.5C16.9477 20 16.5 20.4477 16.5 21C16.5 21.5523 16.9477 22 17.5 22H21C22.6569 22 24 20.6569 24 19V15.5C24 14.9477 23.5523 14.5 23 14.5Z" fill="white"/>
<path d="M21 2H17.5C16.9477 2 16.5 2.44772 16.5 3C16.5 3.55228 16.9477 4 17.5 4H21C21.5523 4 22 4.44772 22 5V8.5C22 9.05228 22.4477 9.5 23 9.5C23.5523 9.5 24 9.05228 24 8.5V5C24 3.34315 22.6569 2 21 2Z" fill="white"/>
<path d="M10.5 2H7C5.34315 2 4 3.34315 4 5V8.5C4 9.05228 4.44772 9.5 5 9.5C5.55228 9.5 6 9.05228 6 8.5V5C6 4.44772 6.44772 4 7 4H10.5C11.0523 4 11.5 3.55228 11.5 3C11.5 2.44772 11.0523 2 10.5 2Z" fill="white"/>
</g>
<defs>
<filter id="filter0_d_2382_10991" x="-2" y="0" width="32" height="32" filterUnits="userSpaceOnUse" color-interpolation-filters="sRGB">
<feFlood flood-opacity="0" result="BackgroundImageFix"/>
<feColorMatrix in="SourceAlpha" type="matrix" values="0 0 0 0 0 0 0 0 0 0 0 0 0 0 0 0 0 0 127 0" result="hardAlpha"/>
<feOffset dy="4"/>
<feGaussianBlur stdDeviation="2"/>
<feComposite in2="hardAlpha" operator="out"/>
<feColorMatrix type="matrix" values="0 0 0 0 0 0 0 0 0 0 0 0 0 0 0 0 0 0 0.25 0"/>
<feBlend mode="normal" in2="BackgroundImageFix" result="effect1_dropShadow_2382_10991"/>
<feBlend mode="normal" in="SourceGraphic" in2="effect1_dropShadow_2382_10991" result="shape"/>
</filter>
</defs>
</svg>
