<svg width="15" height="15" viewBox="0 0 15 15" fill="none" xmlns="http://www.w3.org/2000/svg">
<path fill-rule="evenodd" clip-rule="evenodd" d="M13.2709 3.30625C13.1464 2.51891 12.4915 1.92383 11.6959 1.875H3.37716C2.58153 1.92383 1.92667 2.51891 1.80216 3.30625L1.25841 10.6313C1.14591 12.1562 2.17716 13.4625 3.48341 13.4625H11.4772C12.7647 13.4625 13.7834 12.2125 13.6959 10.6875L13.2709 3.30625ZM3.37715 2.8375H11.6959C12.0161 2.89152 12.2669 3.14235 12.3209 3.4625L12.5834 7.9375H10.5397C9.71925 7.96592 8.98246 8.44748 8.62715 9.1875C8.40525 9.63333 7.95015 9.91516 7.45215 9.91516C6.95416 9.91516 6.49906 9.63333 6.27715 9.1875C5.92295 8.44651 5.1855 7.96452 4.36466 7.9375H2.40216L2.73341 3.46875C2.78912 3.14138 3.04875 2.88679 3.37715 2.8375ZM11.4772 12.525C11.7878 12.5163 12.0814 12.3808 12.2897 12.15C12.6247 11.7666 12.7893 11.2635 12.7459 10.7563L12.6397 8.88125H10.5272C10.0547 8.91339 9.63758 9.20107 9.43966 9.63125C9.05891 10.3845 8.28675 10.8593 7.44278 10.8593C6.59881 10.8593 5.82665 10.3845 5.44591 9.63125C5.24584 9.2001 4.82643 8.9125 4.35215 8.88125H2.33341L2.19591 10.7C2.14931 11.222 2.31617 11.7406 2.65841 12.1375C2.86737 12.376 3.16641 12.5165 3.48341 12.525H11.4772Z" fill="black"/>
</svg>
