<svg width="17" height="17" viewBox="0 0 17 17" fill="none" xmlns="http://www.w3.org/2000/svg">
<path d="M8.49589 17C13.1547 17 17 13.1528 17 8.5C17 3.8472 13.1464 0 8.48767 0C3.83712 0 0 3.8472 0 8.5C0 13.1528 3.84534 17 8.49589 17ZM8.49589 15.3066C4.7245 15.3066 1.70904 12.2732 1.70904 8.5C1.70904 4.72679 4.7245 1.70164 8.48767 1.70164C12.2591 1.70164 15.291 4.72679 15.2992 8.5C15.3074 12.2732 12.2673 15.3066 8.49589 15.3066ZM8.50411 11.7224C10.2871 11.7224 11.725 10.2838 11.725 8.49178C11.725 6.71615 10.2871 5.26934 8.50411 5.26934C6.7129 5.26934 5.27501 6.71615 5.27501 8.49178C5.27501 10.2838 6.7129 11.7224 8.50411 11.7224Z" fill="#333333"/>
</svg>
