<svg width="13" height="13" viewBox="0 0 13 13" fill="none" xmlns="http://www.w3.org/2000/svg">
<path d="M0.875031 10.2501C0.875 10.2097 0.875 10.1681 0.875 10.1251V2.87512C0.875 2.17506 0.875 1.82476 1.01124 1.55737C1.13108 1.32217 1.32217 1.13108 1.55737 1.01124C1.82476 0.875 2.17506 0.875 2.87512 0.875H10.1251C10.8252 0.875 11.175 0.875 11.4424 1.01124C11.6776 1.13108 11.8691 1.32217 11.9889 1.55737C12.125 1.8245 12.125 2.17437 12.125 2.87307V10.1269C12.125 10.4301 12.125 10.6674 12.1139 10.8609M0.875031 10.2501C0.875513 10.8678 0.883357 11.1911 1.01124 11.4421C1.13108 11.6773 1.32217 11.8691 1.55737 11.9889C1.8245 12.125 2.17437 12.125 2.87307 12.125H10.1272C10.8259 12.125 11.1753 12.125 11.4424 11.9889C11.6776 11.8691 11.8691 11.6773 11.9889 11.4421C12.0659 11.2909 12.0994 11.1133 12.1139 10.8609M0.875031 10.2501L3.85499 6.77344L3.85587 6.77247C4.12017 6.46412 4.25254 6.30969 4.40954 6.25403C4.54746 6.20513 4.69804 6.20627 4.83527 6.25708C4.99165 6.31498 5.12191 6.47117 5.38245 6.78381L7.05192 8.78719C7.2931 9.0766 7.41438 9.22214 7.56164 9.28055C7.69154 9.33207 7.83478 9.33788 7.96881 9.29833C8.12137 9.25331 8.25567 9.11902 8.52423 8.85046L8.8349 8.53979C9.10833 8.26636 9.24505 8.12974 9.3998 8.08508C9.53571 8.04586 9.68102 8.05428 9.81177 8.10828C9.96064 8.16975 10.0814 8.32024 10.3229 8.62219L12.1139 10.8609M12.1139 10.8609L12.125 10.8748M8.375 4.625C8.02982 4.625 7.75 4.34518 7.75 4C7.75 3.65482 8.02982 3.375 8.375 3.375C8.72018 3.375 9 3.65482 9 4C9 4.34518 8.72018 4.625 8.375 4.625Z" stroke="black" stroke-linecap="round" stroke-linejoin="round"/>
<path d="M8 4H9" stroke="black" stroke-linecap="round"/>
</svg>
