<svg width="12" height="12" viewBox="0 0 12 12" fill="none" xmlns="http://www.w3.org/2000/svg">
<path d="M9.204 2.076C9.0616 2.076 8.92239 2.11823 8.80399 2.19734C8.68559 2.27646 8.5933 2.38891 8.53881 2.52047C8.48431 2.65203 8.47005 2.7968 8.49784 2.93647C8.52562 3.07613 8.59419 3.20442 8.69488 3.30512C8.79558 3.40581 8.92387 3.47438 9.06354 3.50217C9.2032 3.52995 9.34797 3.51569 9.47953 3.46119C9.6111 3.4067 9.72354 3.31441 9.80266 3.19601C9.88177 3.07761 9.924 2.9384 9.924 2.796C9.924 2.60504 9.84814 2.42191 9.71312 2.28688C9.57809 2.15186 9.39496 2.076 9.204 2.076ZM11.964 3.528C11.9523 3.03018 11.8591 2.53764 11.688 2.07C11.5354 1.66988 11.298 1.30757 10.992 1.008C10.6949 0.700456 10.3317 0.464506 9.93 0.318C9.46359 0.141696 8.97051 0.046326 8.472 0.036C7.836 -3.35276e-08 7.632 0 6 0C4.368 0 4.164 -3.35276e-08 3.528 0.036C3.02949 0.046326 2.53641 0.141696 2.07 0.318C1.66901 0.465989 1.30616 0.701736 1.008 1.008C0.700456 1.30511 0.464506 1.66826 0.318 2.07C0.141696 2.53641 0.046326 3.02949 0.036 3.528C-3.35276e-08 4.164 0 4.368 0 6C0 7.632 -3.35276e-08 7.836 0.036 8.472C0.046326 8.97051 0.141696 9.46359 0.318 9.93C0.464506 10.3317 0.700456 10.6949 1.008 10.992C1.30616 11.2983 1.66901 11.534 2.07 11.682C2.53641 11.8583 3.02949 11.9537 3.528 11.964C4.164 12 4.368 12 6 12C7.632 12 7.836 12 8.472 11.964C8.97051 11.9537 9.46359 11.8583 9.93 11.682C10.3317 11.5355 10.6949 11.2995 10.992 10.992C11.2993 10.6935 11.537 10.3309 11.688 9.93C11.8591 9.46236 11.9523 8.96982 11.964 8.472C11.964 7.836 12 7.632 12 6C12 4.368 12 4.164 11.964 3.528ZM10.884 8.4C10.8796 8.78086 10.8107 9.15822 10.68 9.516C10.5842 9.77712 10.4303 10.0131 10.23 10.206C10.0354 10.4043 9.79994 10.5579 9.54 10.656C9.18222 10.7867 8.80486 10.8556 8.424 10.86C7.824 10.89 7.602 10.896 6.024 10.896C4.446 10.896 4.224 10.896 3.624 10.86C3.22853 10.8674 2.83476 10.8065 2.46 10.68C2.21147 10.5768 1.98681 10.4237 1.8 10.23C1.60085 10.0372 1.44891 9.80112 1.356 9.54C1.20951 9.17709 1.12827 8.79117 1.116 8.4C1.116 7.8 1.08 7.578 1.08 6C1.08 4.422 1.08 4.2 1.116 3.6C1.11869 3.21063 1.18977 2.82477 1.326 2.46C1.43163 2.20675 1.59376 1.981 1.8 1.8C1.98229 1.5937 2.20757 1.42986 2.46 1.32C2.82573 1.18803 3.2112 1.11905 3.6 1.116C4.2 1.116 4.422 1.08 6 1.08C7.578 1.08 7.8 1.08 8.4 1.116C8.78086 1.12037 9.15822 1.18935 9.516 1.32C9.78866 1.42119 10.0334 1.58571 10.23 1.8C10.4266 1.98431 10.5803 2.20964 10.68 2.46C10.8134 2.82536 10.8824 3.21107 10.884 3.6C10.914 4.2 10.92 4.422 10.92 6C10.92 7.578 10.914 7.8 10.884 8.4ZM6 2.922C5.39149 2.92319 4.79698 3.10472 4.29159 3.44365C3.78621 3.78259 3.39263 4.26372 3.16058 4.82625C2.92853 5.38879 2.86843 6.00748 2.98788 6.60416C3.10732 7.20084 3.40094 7.74872 3.83165 8.17859C4.26235 8.60845 4.81081 8.90101 5.40772 9.01929C6.00462 9.13757 6.6232 9.07626 7.18528 8.84312C7.74736 8.60998 8.22773 8.21546 8.56568 7.70942C8.90363 7.20338 9.084 6.60852 9.084 6C9.08479 5.59506 9.00552 5.19396 8.85074 4.81977C8.69597 4.44558 8.46873 4.10569 8.18212 3.81963C7.89551 3.53358 7.55517 3.30701 7.18068 3.15296C6.80619 2.99891 6.40493 2.92042 6 2.922ZM6 7.998C5.60483 7.998 5.21854 7.88082 4.88997 7.66128C4.5614 7.44173 4.30531 7.12969 4.15409 6.7646C4.00286 6.39952 3.9633 5.99778 4.04039 5.61021C4.11748 5.22264 4.30778 4.86663 4.5872 4.5872C4.86663 4.30778 5.22264 4.11748 5.61021 4.04039C5.99778 3.9633 6.39952 4.00286 6.7646 4.15409C7.12969 4.30531 7.44173 4.5614 7.66128 4.88997C7.88082 5.21854 7.998 5.60483 7.998 6C7.998 6.26238 7.94632 6.52219 7.84591 6.7646C7.7455 7.00701 7.59833 7.22727 7.4128 7.4128C7.22727 7.59833 7.00701 7.7455 6.7646 7.84591C6.52219 7.94632 6.26238 7.998 6 7.998Z" fill="white"/>
</svg>
