<svg width="16" height="17" viewBox="0 0 16 17" fill="none" xmlns="http://www.w3.org/2000/svg">
<path fill-rule="evenodd" clip-rule="evenodd" d="M5.10021 4.25C5.10021 2.84167 6.24188 1.7 7.65021 1.7C9.05853 1.7 10.2002 2.84167 10.2002 4.25C10.2002 5.65833 9.05853 6.8 7.65021 6.8C6.24188 6.8 5.10021 5.65833 5.10021 4.25ZM7.65021 0C5.303 0 3.40021 1.90279 3.40021 4.25C3.40021 6.59721 5.303 8.5 7.65021 8.5C9.99742 8.5 11.9002 6.59721 11.9002 4.25C11.9002 1.90279 9.99742 0 7.65021 0ZM4.25 10.2001C3.12283 10.2001 2.04183 10.6479 1.2448 11.4449C0.447766 12.2419 0 13.3229 0 14.4501V16.1501C0 16.6195 0.380558 17.0001 0.85 17.0001C1.31944 17.0001 1.7 16.6195 1.7 16.1501V14.4501C1.7 13.7738 1.96866 13.1252 2.44688 12.647C2.9251 12.1688 3.5737 11.9001 4.25 11.9001H11.05C11.7263 11.9001 12.3749 12.1688 12.8531 12.647C13.3313 13.1252 13.6 13.7738 13.6 14.4501V16.1501C13.6 16.6195 13.9806 17.0001 14.45 17.0001C14.9194 17.0001 15.3 16.6195 15.3 16.1501V14.4501C15.3 13.3229 14.8522 12.2419 14.0552 11.4449C13.2582 10.6479 12.1772 10.2001 11.05 10.2001H4.25Z" fill="#333333"/>
</svg>
