<svg width="82" height="54" viewBox="0 0 82 54" fill="none" xmlns="http://www.w3.org/2000/svg">
<g filter="url(#filter0_dii_2309_11424)">
<path d="M71.2759 13.5815C71.1344 13.7459 71.0283 13.9102 71.0283 13.965C71.0281 14.1074 68.8252 15.8944 67.5531 16.7826C64.9499 18.5919 61.6878 20.325 59.8981 20.8193C59.6627 20.8853 59.5331 21.0058 59.5094 21.1701C59.4502 21.5097 60.0375 22.6482 60.9307 23.9179L61.6593 24.9688L61.4588 25.3522C61.0461 26.1083 61.2575 26.5571 62.0108 26.5565C62.4816 26.5561 65.7756 28.1853 67.5988 29.3228C68.7868 30.0665 70.5393 31.2808 70.5392 31.3574C70.5273 31.456 68.6782 32.6404 67.5593 33.2656C66.0636 34.1101 63.5788 35.2841 63.1197 35.3721C62.2956 35.5261 62.2483 35.7233 62.7886 36.8071C63.4816 38.1975 65.5854 41.1199 65.8915 41.1197C65.9739 41.1196 66.1742 40.9004 66.3392 40.6374C66.9405 39.6731 69.4025 37.7983 71.8404 36.4272C73.2301 35.6484 75.9503 34.4305 77.01 34.1011C77.4927 33.9583 77.9873 33.7607 78.1051 33.673C78.5056 33.366 78.3063 32.5776 77.3901 30.826C76.8732 29.8298 76.8615 29.7751 76.9915 29.315C77.0741 29.0521 77.1333 28.7234 77.1335 28.5701C77.1338 28.2963 76.7575 27.9681 76.4279 27.9683C76.0983 27.9686 72.9924 26.6679 71.6748 25.9899C70.0984 25.1698 67.793 23.737 67.3344 23.2884L66.9934 22.9601L67.6883 22.5324C69.6552 21.2931 73.9535 19.3182 74.6479 19.3176C74.9539 19.3173 75.3781 18.857 75.3785 18.5175C75.3795 17.5646 73.9109 15.014 72.688 13.8322C72.0413 13.2085 71.653 13.1321 71.2759 13.5815Z" fill="black"/>
<path d="M24.7807 13.65C24.0033 14.1763 20.5302 15.0116 18.07 15.2655C16.622 15.431 16.1395 15.4314 14.8566 15.323L13.3501 15.1928L12.6553 15.5986C11.0889 16.498 7.65119 17.2237 4.33183 17.3579C2.38966 17.4252 2.30727 17.4252 1.96617 17.1955C1.7662 17.0752 1.57799 16.9659 1.54268 16.9659C1.50737 16.9659 1.45999 17.2507 1.44786 17.5902C1.4356 18.0612 1.42377 18.116 1.38878 17.8093C1.34211 17.4151 1.21277 17.2947 1.05953 17.5029C0.88268 17.7879 1.70103 23.099 1.99481 23.5478C2.04184 23.6025 2.14773 23.6462 2.25366 23.6461C2.44198 23.646 2.44202 23.6131 2.23104 22.77C2.18416 22.5729 2.21944 22.6057 2.33687 22.8684C2.44259 23.0655 2.52472 23.3173 2.52462 23.4159C2.52451 23.5145 2.5832 23.6677 2.64196 23.7553C2.73599 23.8867 2.78308 23.8757 3.01869 23.6783C3.52529 23.2289 6.09216 22.3287 7.91696 21.9438C9.02361 21.7129 11.0366 21.4374 11.1072 21.514C11.2483 21.6344 11.2453 24.4929 11.1146 25.654C11.0433 26.3111 10.8183 27.5708 10.6173 28.4362L10.2625 30.0136L10.5092 30.4953C10.9556 31.3054 11.1193 32.3348 11.1875 34.6566C11.2787 37.5369 11.0054 39.9685 10.4391 41.2614C10.3329 41.5133 10.2855 41.7543 10.3326 41.7981C10.3678 41.8419 10.768 41.9073 11.1917 41.9398L11.9802 42.0048L11.2387 42.0164C10.709 42.0387 10.5088 42.0827 10.5323 42.1703C10.6262 42.4221 11.4147 42.4981 13.863 42.4523C16.4525 42.4173 17.0529 42.3182 16.7354 41.968C16.6296 41.8476 16.6532 41.8147 16.8886 41.8146C17.3241 41.8142 17.3595 41.7156 17.0539 41.3325C16.6895 40.8619 16.5606 40.3691 16.3271 38.5294C16.0003 35.8464 16.2519 31.6843 16.8182 30.4353C17.0659 29.8765 17.0778 29.7999 16.9134 29.3948C16.3735 27.9714 16.012 24.7409 16.1556 22.4955L16.2395 21.0826L17.0166 20.7863C18.3119 20.2924 21.0314 19.6877 22.5264 19.577C24.6687 19.4109 25.3632 19.4322 25.8102 19.6838C26.0102 19.8041 26.1866 19.8806 26.1867 19.8477C26.1867 19.8258 26.0812 19.3988 25.9523 18.8951C25.8233 18.3914 25.7297 17.9096 25.7297 17.822C25.7417 17.6577 25.7769 17.7672 26.1403 19.114C26.4569 20.2746 26.5281 19.716 26.2353 18.3692C26.083 17.6793 25.8373 16.3105 25.6971 15.3249C25.4517 13.6275 25.2757 13.091 25.2277 13.9563L25.2155 14.3725L25.1453 13.9125L25.0752 13.4526L24.7807 13.65ZM25.3322 15.2704C25.2968 15.38 25.2733 15.3143 25.2735 15.1391C25.2737 14.9529 25.2973 14.8762 25.3326 14.9419C25.356 15.0185 25.3559 15.1719 25.3322 15.2704ZM25.4491 16.037C25.4137 16.1465 25.3902 16.0809 25.3904 15.9056C25.3906 15.7194 25.4142 15.6427 25.4495 15.7084C25.4729 15.7851 25.4728 15.9384 25.4491 16.037ZM25.5661 16.694C25.5307 16.8036 25.5072 16.7379 25.5074 16.5627C25.5076 16.3765 25.5312 16.2998 25.5665 16.3655C25.5899 16.4421 25.5898 16.5954 25.5661 16.694ZM25.6831 17.4058C25.6477 17.4825 25.6242 17.4278 25.6244 17.2744C25.6245 17.1211 25.6481 17.0663 25.6834 17.132C25.7068 17.2087 25.7067 17.3401 25.6831 17.4058ZM1.86811 20.9084C1.91479 21.2917 1.90305 21.2588 1.76235 20.7442C1.68034 20.3829 1.57513 19.693 1.54032 19.2111L1.48239 18.335L1.63431 19.3753C1.72788 19.9447 1.82132 20.6346 1.86811 20.9084ZM2.02018 21.8064C1.98478 21.894 1.9495 21.8612 1.94963 21.7407C1.93799 21.6202 1.97337 21.5545 2.00863 21.5983C2.04391 21.6311 2.05557 21.7297 2.02018 21.8064ZM15.8055 42.0345C15.4523 42.0895 14.4401 42.1232 13.5691 42.113L11.9801 42.1034L13.6869 42.0363C14.6285 42.0026 15.629 41.9689 15.9233 41.9577C16.4294 41.9573 16.4294 41.9573 15.8055 42.0345Z" fill="black"/>
<path d="M31.948 16.1216C32.042 16.2092 32.3597 16.3294 32.6539 16.3948C33.1834 16.5039 33.1834 16.5039 32.7127 16.4605C32.4538 16.4279 32.1125 16.3734 31.9713 16.3406L31.6889 16.2642L31.9003 16.6364C32.0766 16.9429 32.1233 17.3262 32.1569 18.8814C32.2246 21.7179 31.7862 24.4344 30.747 27.6881C30.3692 28.8603 30.3572 29.0684 30.6267 30.2072C30.8962 31.357 30.7278 34.7742 30.2781 37.1293C29.994 38.6299 29.4151 40.6785 29.1439 41.1716C28.9906 41.4674 28.8608 41.7303 28.8608 41.7523C28.8608 41.7851 29.0372 41.8616 29.249 41.9162C29.5432 41.9926 29.5667 42.0145 29.3666 42.0256C29.2136 42.0367 29.0958 42.1025 29.0957 42.2011C29.0954 42.4859 30.6841 42.8131 33.1909 43.0301C34.5679 43.1494 35.3331 43.083 35.3333 42.853C35.3334 42.7326 35.0863 42.689 34.3683 42.6567L33.3914 42.6247L34.6038 42.6017C35.263 42.5902 35.8044 42.5569 35.8045 42.5241C35.8045 42.5022 35.6988 42.2942 35.5813 42.0643C35.2641 41.4731 35.1833 39.9727 35.3389 37.5412C35.5543 34.1678 36.2407 30.6406 36.6879 30.6403C36.7586 30.6402 36.9824 30.4538 37.1945 30.2346C37.442 29.9496 37.6068 29.8509 37.6892 29.9275C37.9008 30.1245 39.1924 33.1681 39.8026 34.9309C40.624 37.3288 41.6792 41.2049 41.7723 42.2015C41.8653 43.3076 42.0769 43.5593 42.9126 43.5586C44.1014 43.5576 45.5261 43.0855 47.0219 42.2081C48.5765 41.2868 48.73 40.8815 47.8835 39.9293C46.4963 38.3534 44.3474 33.4705 42.7052 28.1272L42.3767 27.087L42.6359 26.9006C43.2366 26.4511 48.2525 24.826 49.0646 24.8253C49.5472 24.8249 50.0185 24.3755 49.9718 23.9703C49.9135 23.4446 49.3386 21.7256 48.998 21.0031C48.8101 20.6199 48.3636 19.8974 47.9992 19.3939C47.4233 18.573 47.3057 18.4745 46.9879 18.4748C46.6937 18.475 46.4817 18.6066 45.9044 19.1657C45.5038 19.5493 44.6203 20.2072 43.9254 20.6349C42.2294 21.6768 37.3776 23.9589 36.8597 23.9593C36.5184 23.9596 37.6073 18.165 38.0789 17.4089C38.3619 16.9487 38.3619 16.9487 37.9853 16.938C37.7028 16.9163 37.691 16.9164 37.9265 16.8723C38.5387 16.7623 38.0797 16.6532 36.3732 16.5341C35.3728 16.4583 33.984 16.3061 33.2779 16.1862C31.7481 15.9246 31.7363 15.9247 31.948 16.1216ZM33.7483 16.5911C33.6659 16.613 33.5247 16.6132 33.4541 16.5913C33.3717 16.5585 33.4306 16.5366 33.5954 16.5364C33.7602 16.5363 33.819 16.5581 33.7483 16.5911ZM35.1842 16.7323C35.6667 16.7976 35.702 16.8085 35.3606 16.8197C35.137 16.8199 34.7133 16.7874 34.4191 16.7438C33.7012 16.624 34.3721 16.6125 35.1842 16.7323ZM37.1025 16.9168C36.9259 16.9389 36.6081 16.9392 36.3963 16.9174C36.1845 16.8957 36.3257 16.8737 36.7142 16.8734C37.1026 16.873 37.2791 16.8948 37.1025 16.9168ZM31.3202 42.3197C31.4143 42.3963 30.6846 42.3422 30.3904 42.2548C30.1904 42.1892 30.2846 42.1782 30.6847 42.2217C31.0142 42.2543 31.2967 42.2978 31.3202 42.3197ZM33.3209 42.5371C33.415 42.6137 32.0968 42.56 31.7438 42.4727C31.5437 42.4291 31.8027 42.4179 32.3323 42.4503C32.8502 42.4718 33.2974 42.5152 33.3209 42.5371Z" fill="black"/>
<path d="M51.368 25.0335C51.3679 25.0883 51.4856 25.1539 51.6386 25.1756L51.8975 25.2192L51.6267 25.2414L51.3678 25.2525L51.591 25.6576C51.9316 26.2925 52.0835 27.3986 52.1516 29.8189C52.2197 32.2284 52.1243 33.3565 51.6396 35.4159C51.2967 36.9167 51.2965 37.0371 51.5902 37.6502C51.7193 37.9239 51.9069 38.6247 52.024 39.227C52.457 41.5704 52.1457 46.5977 51.4731 48.2411C51.2253 48.8436 51.2371 48.8546 51.8137 48.9417C52.1079 48.9853 52.1079 48.9853 51.7901 49.0074C51.5665 49.0186 51.484 49.0625 51.531 49.1719C51.6484 49.4675 52.8135 49.5871 55.0381 49.5414C57.0509 49.4959 57.8161 49.3748 57.8164 49.1339C57.8164 49.0791 57.6753 49.0025 57.4987 48.9808C57.2516 48.9481 57.2987 48.9371 57.6518 48.915C57.9108 48.9147 58.158 48.8707 58.2051 48.8378C58.2404 48.8049 58.1465 48.586 57.9937 48.3671C57.7822 48.0715 57.6532 47.6007 57.4544 46.3852C56.9983 43.5708 57.18 38.6751 57.7814 37.6013C58.0054 37.2068 57.9707 36.6921 57.6309 35.2138C57.4902 34.6444 57.3147 33.637 57.2448 32.9908C56.988 30.9101 57.2753 26.3538 57.7116 25.5868C57.9003 25.269 57.8767 25.2471 57.4059 25.2366L56.9587 25.226L57.3472 25.1271C57.5474 25.0722 57.724 25.0063 57.724 24.9844C57.724 24.9625 56.2998 24.9418 54.5461 24.9432C52.8041 24.9447 51.368 24.9897 51.368 25.0335ZM55.4049 25.3258C54.9341 25.3481 54.1572 25.3488 53.6982 25.3273C53.2274 25.3167 53.6041 25.2945 54.5457 25.2937C55.4873 25.2929 55.864 25.3145 55.4049 25.3258ZM53.4967 49.0936C53.3437 49.1157 53.1083 49.1159 52.967 49.0941C52.8141 49.0723 52.9318 49.0503 53.226 49.0501C53.5203 49.0498 53.638 49.0716 53.4967 49.0936ZM56.6747 49.091C56.5217 49.113 56.2627 49.1132 56.0862 49.0915C55.8979 49.0697 56.0274 49.0477 56.3452 49.0475C56.6747 49.0472 56.816 49.069 56.6747 49.091ZM54.7207 49.1912C54.6854 49.2241 54.5794 49.2351 54.4971 49.2023C54.4029 49.1696 54.4383 49.1367 54.5678 49.1366C54.6972 49.1255 54.7678 49.1583 54.7207 49.1912Z" fill="black"/>
<path d="M23.9883 26.1574C23.4703 26.2673 22.2813 26.4436 21.3396 26.532C19.2207 26.7637 18.7498 26.8298 19.0204 26.8844C19.2322 26.939 19.3027 27.136 19.1026 27.1362C19.0319 27.1363 19.1024 27.2676 19.267 27.4318C20.2665 28.4276 21.0146 33.3116 20.7518 37.0246L20.6205 38.7771L20.973 39.3463C21.4078 40.0469 21.9592 41.7112 22.2051 42.9924C22.6147 45.2263 22.6932 48.939 22.3507 50.0564C22.2798 50.2755 22.2443 50.4836 22.2796 50.5164C22.3384 50.5711 25.6814 50.3055 26.5525 50.1843C26.7527 50.1513 26.6467 50.2061 26.317 50.294C25.9991 50.3819 25.3163 50.4811 24.7866 50.5143C22.8915 50.6473 22.6089 50.6914 22.6088 50.8666C22.6084 51.2171 27.1052 50.6986 28.4122 50.1937C28.9539 49.9742 28.9894 49.7552 28.4714 49.8432L28.083 49.8983L28.495 49.7884C28.7187 49.7225 28.9778 49.6456 29.072 49.6237C29.2015 49.5907 29.1898 49.5359 29.037 49.328C28.5198 48.6713 28.3671 48.3647 28.0387 47.2369C27.2881 44.6748 26.9724 42.6708 26.9747 40.4913C26.9758 39.407 27.0353 38.7389 27.1534 38.3774C27.3424 37.7968 27.3775 37.972 26.6379 36.1436C26.2035 35.0706 25.7933 33.3734 25.5127 31.5665C25.2906 30.1648 25.2113 27.2078 25.3767 26.6053C25.4594 26.3095 25.4477 26.2548 25.2594 26.244C25.1417 26.2441 25.1064 26.2112 25.2006 26.1783C25.4125 26.1015 25.3774 25.9262 25.142 25.9374C25.0243 25.9484 24.5063 26.0474 23.9883 26.1574ZM23.0697 26.651C23.0343 26.6839 22.9284 26.6949 22.846 26.6621C22.7519 26.6294 22.7872 26.5965 22.9167 26.5964C23.0462 26.5853 23.1168 26.6181 23.0697 26.651ZM22.4339 26.772C22.3515 26.794 22.2103 26.7941 22.1397 26.7723C22.0573 26.7395 22.1162 26.7175 22.281 26.7174C22.4458 26.7172 22.5046 26.7391 22.4339 26.772ZM21.6688 26.8822C21.551 26.9042 21.3627 26.9043 21.2568 26.8825C21.1391 26.8497 21.2333 26.8278 21.457 26.8276C21.6806 26.8274 21.7747 26.8492 21.6688 26.8822ZM20.727 26.9925C20.5504 27.0145 20.2326 27.0148 20.0208 26.9931C19.809 26.9713 19.9502 26.9493 20.3386 26.949C20.7271 26.9487 20.9036 26.9704 20.727 26.9925ZM27.9416 49.986C27.8592 50.008 27.718 50.0081 27.6474 49.9863C27.565 49.9535 27.6239 49.9315 27.7887 49.9314C27.9535 49.9313 28.0123 49.9531 27.9416 49.986ZM27.353 50.096C27.2706 50.118 27.1293 50.1181 27.0587 50.0963C26.9764 50.0635 27.0353 50.0415 27.2 50.0414C27.3648 50.0413 27.4237 50.0631 27.353 50.096Z" fill="black"/>
</g>
<g filter="url(#filter1_di_2309_11424)">
<path d="M48.2465 2.45436C49.2833 2.50844 51.9612 5.90618 50.6958 9.31337C50.0286 11.1099 49.256 11.6209 49.0183 14.1636C49.2356 16.6324 50.116 17.5341 51.3885 18.3788C52.661 19.2234 55.0259 19.4992 56.3601 18.9943C57.6943 18.4893 58.4899 18.0931 59.2306 16.4864C59.9713 14.8798 59.006 11.9709 59.006 11.9709C59.006 11.9709 57.7297 7.76916 54.5778 5.50241C55.6669 7.19291 56.2694 8.49659 56.9393 10.6169C57.3259 11.8407 57.2796 12.7043 57.4378 13.6937C57.5176 14.1923 57.1254 14.9572 57.1254 14.9572C57.3793 14.0077 56.865 12.1406 56.2707 11.3327C56.108 11.1115 55.9503 10.9478 55.8702 10.8516C55.7782 10.7011 55.8497 11.0268 55.8735 11.1354C55.8973 11.2439 56.1151 12.5048 56.1151 12.5048C56.2426 13.4805 56.4028 14.8216 55.9385 15.7298C55.5879 16.4156 54.772 16.3273 54.772 16.3273C54.772 16.3273 54.13 14.1017 54.439 12.9296C54.6965 11.9527 55.0294 11.3207 55.369 10.4495C55.8578 9.19574 55.779 8.55974 55.075 7.49849C54.6026 6.78617 53.3876 5.99131 53.3876 5.99131C53.3876 5.99131 54.1446 7.39201 54.2939 8.23896C54.4502 9.1257 54.5812 9.55415 54.2522 10.4671C53.9713 11.2468 53.0266 12.7845 53.0266 12.7845C53.0266 12.7845 52.8101 11.1269 52.7469 10.0579C52.6898 9.09329 52.8165 8.54119 52.6969 7.58282C52.5567 6.4598 52.1544 5.19744 51.4717 4.2498C51.1247 3.76812 50.9045 3.46539 50.398 3.11998C49.6788 2.6296 48.2465 2.45436 48.2465 2.45436Z" fill="black"/>
<path d="M47.7489 2.33375C48.7858 2.38783 51.4636 5.78558 50.1983 9.19277C49.5311 10.9893 48.7585 11.5003 48.5208 14.043C48.738 16.5118 49.6184 17.4135 50.8909 18.2582C52.1635 19.1028 54.5284 19.3786 55.8625 18.8737C57.1967 18.3687 57.9923 17.9724 58.733 16.3658C59.4737 14.7592 58.5085 11.8503 58.5085 11.8503C58.5085 11.8503 57.2321 7.64856 54.0803 5.38181C55.1693 7.07231 55.7719 8.37598 56.4417 10.4963C56.8284 11.7201 56.782 12.5837 56.9403 13.5731C57.02 14.0717 56.6278 14.8366 56.6278 14.8366C56.8818 13.887 56.3674 12.02 55.7731 11.212C55.6104 10.9909 55.4527 10.8272 55.3726 10.731C55.2806 10.5805 55.3521 10.9062 55.3759 11.0148C55.3998 11.1233 55.6176 12.3842 55.6176 12.3842C55.7451 13.3598 55.9053 14.701 55.4409 15.6092C55.0903 16.295 54.2745 16.2067 54.2745 16.2067C54.2745 16.2067 53.6324 13.9811 53.9414 12.809C54.199 11.8321 54.5319 11.2001 54.8715 10.3289C55.3602 9.07514 55.2814 8.43914 54.5775 7.37788C54.105 6.66557 52.89 5.87071 52.89 5.87071C52.89 5.87071 53.647 7.2714 53.7963 8.11835C53.9527 9.00509 54.0836 9.43355 53.7547 10.3465C53.4738 11.1262 52.5291 12.6639 52.5291 12.6639C52.5291 12.6639 52.3125 11.0063 52.2493 9.93734C52.1922 8.97269 52.3189 8.42059 52.1993 7.46222C52.0592 6.3392 51.6569 5.07683 50.9742 4.12919C50.6272 3.64752 50.407 3.34479 49.9004 2.99937C49.1812 2.50899 47.7489 2.33375 47.7489 2.33375Z" fill="black"/>
<path d="M51.5539 18.0515C52.3801 19.2356 54.528 19.3744 55.8621 18.8695C57.1963 18.3645 57.9919 17.9683 58.7326 16.3617C59.4733 14.755 58.508 11.8461 58.508 11.8461C58.508 11.8461 57.2317 7.64438 54.0799 5.37763C55.1689 7.06813 55.7714 8.37181 56.4413 10.4921C56.8279 11.7159 56.7816 12.5795 56.9398 13.5689C57.0196 14.0675 56.6274 14.8324 56.6274 14.8324C56.8814 13.8829 56.367 12.0158 55.7727 11.2079C55.61 10.9867 55.4523 10.823 55.3722 10.7268C55.2802 10.5763 55.3517 10.902 55.3755 11.0106C55.3993 11.1191 55.6172 12.38 55.6172 12.38C55.7447 13.3557 55.9048 14.6968 55.4405 15.6051C55.0899 16.2908 54.274 16.2025 54.274 16.2025C54.274 16.2025 53.632 13.9769 53.941 12.8049C54.1985 11.8279 54.5315 11.1959 54.871 10.3248C55.3598 9.07096 55.281 8.43496 54.5771 7.3737C54.1046 6.66139 52.8896 5.86653 52.8896 5.86653C52.8896 5.86653 53.6466 7.26722 53.7959 8.11418C53.9522 9.00092 54.0832 9.42937 53.7543 10.3423C53.4733 11.122 52.5286 12.6597 52.5286 12.6597C51.4546 14.3749 50.0048 15.8311 51.5539 18.0515Z" fill="black"/>
<path d="M55.7582 18.6648C56.2116 18.8499 57.9919 17.9685 58.7326 16.3619C59.4733 14.7552 58.508 11.8458 58.508 11.8458C58.508 11.8458 57.2316 7.64439 54.0798 5.37764C55.1688 7.06814 55.7714 8.3716 56.4413 10.4919C56.8381 11.7481 57.4936 14.2596 56.3083 15.5285C55.6397 16.2442 54.2859 16.257 54.2859 16.257C54.2859 16.257 55.3049 18.4798 55.7582 18.6648Z" fill="black"/>
</g>
<defs>
<filter id="filter0_dii_2309_11424" x="0.034668" y="12.2949" width="81.2666" height="42.6865" filterUnits="userSpaceOnUse" color-interpolation-filters="sRGB">
<feFlood flood-opacity="0" result="BackgroundImageFix"/>
<feColorMatrix in="SourceAlpha" type="matrix" values="0 0 0 0 0 0 0 0 0 0 0 0 0 0 0 0 0 0 127 0" result="hardAlpha"/>
<feOffset dx="1" dy="1"/>
<feGaussianBlur stdDeviation="1"/>
<feComposite in2="hardAlpha" operator="out"/>
<feColorMatrix type="matrix" values="0 0 0 0 0 0 0 0 0 0 0 0 0 0 0 0 0 0 0.1 0"/>
<feBlend mode="normal" in2="BackgroundImageFix" result="effect1_dropShadow_2309_11424"/>
<feBlend mode="normal" in="SourceGraphic" in2="effect1_dropShadow_2309_11424" result="shape"/>
<feColorMatrix in="SourceAlpha" type="matrix" values="0 0 0 0 0 0 0 0 0 0 0 0 0 0 0 0 0 0 127 0" result="hardAlpha"/>
<feOffset dy="4"/>
<feGaussianBlur stdDeviation="2"/>
<feComposite in2="hardAlpha" operator="arithmetic" k2="-1" k3="1"/>
<feColorMatrix type="matrix" values="0 0 0 0 0 0 0 0 0 0 0 0 0 0 0 0 0 0 0.25 0"/>
<feBlend mode="normal" in2="shape" result="effect2_innerShadow_2309_11424"/>
<feColorMatrix in="SourceAlpha" type="matrix" values="0 0 0 0 0 0 0 0 0 0 0 0 0 0 0 0 0 0 127 0" result="hardAlpha"/>
<feOffset dy="4"/>
<feGaussianBlur stdDeviation="2"/>
<feComposite in2="hardAlpha" operator="arithmetic" k2="-1" k3="1"/>
<feColorMatrix type="matrix" values="0 0 0 0 0 0 0 0 0 0 0 0 0 0 0 0 0 0 0.1 0"/>
<feBlend mode="normal" in2="effect2_innerShadow_2309_11424" result="effect3_innerShadow_2309_11424"/>
</filter>
<filter id="filter1_di_2309_11424" x="47.749" y="2.33398" width="13.7612" height="18.9131" filterUnits="userSpaceOnUse" color-interpolation-filters="sRGB">
<feFlood flood-opacity="0" result="BackgroundImageFix"/>
<feColorMatrix in="SourceAlpha" type="matrix" values="0 0 0 0 0 0 0 0 0 0 0 0 0 0 0 0 0 0 127 0" result="hardAlpha"/>
<feOffset dx="1" dy="1"/>
<feGaussianBlur stdDeviation="0.5"/>
<feComposite in2="hardAlpha" operator="out"/>
<feColorMatrix type="matrix" values="0 0 0 0 0 0 0 0 0 0 0 0 0 0 0 0 0 0 0.15 0"/>
<feBlend mode="normal" in2="BackgroundImageFix" result="effect1_dropShadow_2309_11424"/>
<feBlend mode="normal" in="SourceGraphic" in2="effect1_dropShadow_2309_11424" result="shape"/>
<feColorMatrix in="SourceAlpha" type="matrix" values="0 0 0 0 0 0 0 0 0 0 0 0 0 0 0 0 0 0 127 0" result="hardAlpha"/>
<feOffset dx="1" dy="0.5"/>
<feGaussianBlur stdDeviation="0.5"/>
<feComposite in2="hardAlpha" operator="arithmetic" k2="-1" k3="1"/>
<feColorMatrix type="matrix" values="0 0 0 0 0 0 0 0 0 0 0 0 0 0 0 0 0 0 0.15 0"/>
<feBlend mode="normal" in2="shape" result="effect2_innerShadow_2309_11424"/>
</filter>
</defs>
</svg>
