<svg width="16" height="12" viewBox="0 0 16 12" fill="none" xmlns="http://www.w3.org/2000/svg">
<path d="M14.995 0C14.7298 0 14.4754 0.105357 14.2879 0.292893C14.1004 0.48043 13.995 0.734784 13.995 1V5C13.995 5.26522 13.8897 5.51957 13.7021 5.70711C13.5146 5.89464 13.2602 6 12.995 6H3.40501L4.70501 4.71C4.89332 4.5217 4.9991 4.2663 4.9991 4C4.9991 3.7337 4.89332 3.4783 4.70501 3.29C4.51671 3.1017 4.26132 2.99591 3.99501 2.99591C3.72871 2.99591 3.47332 3.1017 3.28501 3.29L0.285014 6.29C0.193973 6.3851 0.122608 6.49725 0.0750135 6.62C-0.0250045 6.86346 -0.0250045 7.13654 0.0750135 7.38C0.122608 7.50275 0.193973 7.6149 0.285014 7.71L3.28501 10.71C3.37798 10.8037 3.48858 10.8781 3.61044 10.9289C3.7323 10.9797 3.863 11.0058 3.99501 11.0058C4.12703 11.0058 4.25773 10.9797 4.37959 10.9289C4.50145 10.8781 4.61205 10.8037 4.70501 10.71C4.79874 10.617 4.87314 10.5064 4.9239 10.3846C4.97467 10.2627 5.00081 10.132 5.00081 10C5.00081 9.86799 4.97467 9.73728 4.9239 9.61542C4.87314 9.49356 4.79874 9.38296 4.70501 9.29L3.40501 8H12.995C13.7907 8 14.5537 7.68393 15.1163 7.12132C15.6789 6.55871 15.995 5.79565 15.995 5V1C15.995 0.734784 15.8897 0.48043 15.7021 0.292893C15.5146 0.105357 15.2602 0 14.995 0Z" fill="#333333"/>
</svg>
