<svg width="85" height="57" viewBox="0 0 85 57" fill="none" xmlns="http://www.w3.org/2000/svg">
<mask id="mask0_2383_11966" style="mask-type:alpha" maskUnits="userSpaceOnUse" x="0" y="0" width="85" height="57">
<rect width="85" height="57" rx="5" fill="#D9D9D9"/>
</mask>
<g mask="url(#mask0_2383_11966)">
<path d="M84 7.5C84 6.94772 84.4477 6.5 85 6.5C85.5523 6.5 86 6.94772 86 7.5V51.913C86 55.8128 82.8131 58.9607 78.9136 58.9125L7.40786 58.0297C6.50978 58.0186 6.06765 56.9323 6.70274 56.2973C6.89307 56.1069 7.15122 56 7.42039 56H79L80.2814 55.8576C82.1761 55.6471 83.6884 54.1813 83.958 52.2941C83.986 52.0983 84 51.9007 84 51.7029V7.5Z" fill="#737373"/>
</g>
</svg>
