<svg width="150" height="150" viewBox="0 0 150 150" fill="none" xmlns="http://www.w3.org/2000/svg">
<path d="M125.312 68.752H24.6875C21.4083 68.752 18.75 71.4103 18.75 74.6895V75.3145C18.75 78.5936 21.4083 81.252 24.6875 81.252H125.312C128.592 81.252 131.25 78.5936 131.25 75.3145V74.6895C131.25 71.4103 128.592 68.752 125.312 68.752Z" fill="#888687"/>
<path d="M125.312 100H24.6875C21.4083 100 18.75 102.658 18.75 105.938V106.562C18.75 109.842 21.4083 112.5 24.6875 112.5H125.312C128.592 112.5 131.25 109.842 131.25 106.562V105.938C131.25 102.658 128.592 100 125.312 100Z" fill="#888687"/>
<path d="M125.312 37.5H24.6875C21.4083 37.5 18.75 40.1583 18.75 43.4375V44.0625C18.75 47.3417 21.4083 50 24.6875 50H125.312C128.592 50 131.25 47.3417 131.25 44.0625V43.4375C131.25 40.1583 128.592 37.5 125.312 37.5Z" fill="#888687"/>
</svg>
