<svg width="17" height="17" viewBox="0 0 17 17" fill="none" xmlns="http://www.w3.org/2000/svg">
<path d="M15.3 0.309185C15.0439 -0.0322811 14.5596 -0.101484 14.2182 0.154615C13.8768 0.410715 13.8076 0.895138 14.0636 1.2366C14.9665 2.4406 15.4545 3.905 15.4545 5.40999C15.4545 5.83682 15.8005 6.18284 16.2273 6.18284C16.654 6.18284 17 5.83682 17 5.40999C17 3.57055 16.4035 1.78073 15.3 0.309185Z" fill="#333333"/>
<path d="M2.78758 0.15897C3.12658 0.41825 3.19124 0.903299 2.932 1.24236C2.03359 2.41739 1.54545 3.87429 1.54545 5.40999C1.54545 5.83682 1.19949 6.18283 0.772727 6.18283C0.345962 6.18283 0 5.83682 0 5.40999C0 3.54514 0.593684 1.75607 1.70436 0.303422C1.9636 -0.035636 2.44857 -0.100309 2.78758 0.15897Z" fill="#333333"/>
<path fill-rule="evenodd" clip-rule="evenodd" d="M8.5 5.46145e-05C7.06542 5.46145e-05 5.6896 0.570029 4.67519 1.58459C3.66079 2.59915 3.09091 3.97519 3.09091 5.41C3.09091 8.0011 2.53681 9.61015 2.02617 10.5465C1.76978 11.0166 1.52013 11.325 1.34671 11.5081C1.25979 11.5998 1.1915 11.6607 1.15037 11.6949C1.1298 11.7121 1.11601 11.7226 1.11006 11.727L1.10785 11.7287C0.830838 11.919 0.708253 12.2671 0.805882 12.5896C0.904558 12.9156 1.20494 13.1385 1.54545 13.1385H15.4545C15.7951 13.1385 16.0954 12.9156 16.1941 12.5896C16.2917 12.2671 16.1692 11.919 15.8921 11.7287L15.8899 11.727C15.884 11.7226 15.8702 11.7121 15.8496 11.6949C15.8085 11.6607 15.7402 11.5998 15.6533 11.5081C15.4799 11.325 15.2302 11.0166 14.9738 10.5465C14.4632 9.61015 13.9091 8.0011 13.9091 5.41C13.9091 3.97519 13.3392 2.59915 12.3248 1.58459C11.3104 0.570029 9.93458 5.46145e-05 8.5 5.46145e-05ZM13.7937 11.5928H3.20629C3.26509 11.4964 3.32411 11.3945 3.38292 11.2866C4.03137 10.0976 4.63636 8.22884 4.63636 5.41C4.63636 4.38514 5.04342 3.40225 5.768 2.67757C6.49257 1.95288 7.4753 1.54575 8.5 1.54575C9.5247 1.54575 10.5074 1.95288 11.232 2.67757C11.9566 3.40225 12.3636 4.38514 12.3636 5.41C12.3636 8.22884 12.9686 10.0976 13.6171 11.2866C13.6759 11.3945 13.7349 11.4964 13.7937 11.5928Z" fill="#333333"/>
<path d="M7.83159 15.0692C7.61746 14.7 7.1446 14.5744 6.77545 14.7885C6.4063 15.0027 6.28064 15.4756 6.49478 15.8448C6.69855 16.1962 6.99105 16.4878 7.34297 16.6906C7.69489 16.8933 8.09388 17 8.5 17C8.90612 17 9.30512 16.8933 9.65704 16.6906C10.009 16.4878 10.3015 16.1962 10.5052 15.8448C10.7194 15.4756 10.5937 15.0027 10.2246 14.7885C9.8554 14.5744 9.38255 14.7 9.16841 15.0692C9.10048 15.1864 9.00299 15.2836 8.88568 15.3512C8.76838 15.4187 8.63538 15.4543 8.5 15.4543C8.36463 15.4543 8.23163 15.4187 8.11432 15.3512C7.99702 15.2836 7.89952 15.1864 7.83159 15.0692Z" fill="#333333"/>
</svg>
