<svg width="17" height="15" viewBox="0 0 17 15" fill="none" xmlns="http://www.w3.org/2000/svg">
<path fill-rule="evenodd" clip-rule="evenodd" d="M13.6 3.2V0.8C13.6 0.358172 13.2194 0 12.75 0H2.55C1.14556 0 0 1.07817 0 2.4V12.0001C0 13.3219 1.14556 14.4001 2.55 14.4001H14.45C14.9194 14.4001 15.3 14.0419 15.3 13.6001V11.1999H16.15C16.6194 11.1999 17 10.8418 17 10.3999V7.19993C17 6.7581 16.6194 6.39993 16.15 6.39993H15.3V4C15.3 3.55817 14.9194 3.2 14.45 3.2H13.6ZM2.55 1.6C2.08444 1.6 1.7 1.96183 1.7 2.4C1.7 2.61217 1.78955 2.81566 1.94896 2.96569C2.10836 3.11571 2.32457 3.2 2.55 3.2H11.9V1.6H2.55ZM14.4387 7.99993C14.4425 7.99998 14.4462 8 14.45 8C14.4538 8 14.4575 7.99998 14.4613 7.99993H15.3V9.59993H12.75C12.2844 9.59993 11.9 9.2381 11.9 8.79993C11.9 8.58776 11.9896 8.38428 12.149 8.23425C12.3084 8.08422 12.5246 7.99993 12.75 7.99993H14.4387ZM13.6 6.39993V4.8H2.55C2.25765 4.8 1.97047 4.75275 1.7 4.66274V12.0001C1.7 12.4382 2.08444 12.8001 2.55 12.8001H13.6V11.1999H12.75C11.3456 11.1999 10.2 10.1218 10.2 8.79993C10.2 8.16341 10.4687 7.55296 10.9469 7.10287C11.4251 6.65279 12.0737 6.39993 12.75 6.39993H13.6Z" fill="#333333"/>
</svg>
