<svg width="23" height="23" viewBox="0 0 23 23" fill="none" xmlns="http://www.w3.org/2000/svg">
<path d="M16.8845 8.38261C16.7796 8.32654 16.6606 8.29702 16.5395 8.29702C16.4183 8.29702 16.2994 8.32654 16.1945 8.38261L15.3872 8.87453C15.3641 8.88687 15.3379 8.89336 15.3113 8.89336C15.2846 8.89336 15.2584 8.88687 15.2354 8.87453C15.2088 8.86611 15.1849 8.85182 15.1656 8.83289C15.1464 8.81397 15.1324 8.79098 15.125 8.76592C15.01 8.44159 14.7858 8.1599 14.4853 7.96215C14.1848 7.76439 13.8238 7.66099 13.4552 7.66708H10.3502C9.89266 7.66708 9.4539 7.83536 9.1304 8.13488C8.8069 8.4344 8.62516 8.84064 8.62516 9.26424V11.8197C8.62516 12.2433 8.8069 12.6495 9.1304 12.949C9.4539 13.2486 9.89266 13.4168 10.3502 13.4168H13.4552C13.8293 13.4164 14.1931 13.3034 14.4918 13.0948C14.7905 12.8863 15.0079 12.5934 15.1112 12.2605C15.1178 12.2358 15.1316 12.2132 15.1511 12.1952C15.1705 12.1772 15.1949 12.1645 15.2216 12.1583C15.2452 12.1476 15.2712 12.142 15.2975 12.142C15.3238 12.142 15.3497 12.1476 15.3734 12.1583L16.1807 12.6566C16.2825 12.7176 16.3999 12.7527 16.521 12.7583C16.6422 12.7639 16.7628 12.7398 16.8707 12.6885C16.9814 12.6369 17.0751 12.5587 17.1418 12.462C17.2086 12.3654 17.246 12.2538 17.2502 12.1391V8.94481C17.2498 8.82923 17.2156 8.71591 17.1512 8.6169C17.0868 8.5179 16.9946 8.43693 16.8845 8.38261Z" fill="white"/>
<path d="M18.3283 3.8335H7.45721C7.10773 3.8335 6.77257 3.97233 6.52545 4.21944C6.27833 4.46656 6.1395 4.80173 6.1395 5.1512V16.0223C6.1395 16.3718 6.27833 16.7069 6.52545 16.9541C6.77257 17.2012 7.10773 17.34 7.45721 17.34H18.3283C18.6778 17.34 19.0129 17.2012 19.2601 16.9541C19.5072 16.7069 19.646 16.3718 19.646 16.0223V5.1512C19.646 4.80173 19.5072 4.46656 19.2601 4.21944C19.0129 3.97233 18.6778 3.8335 18.3283 3.8335ZM18.2361 15.9235C18.1717 15.9843 18.0874 16.0194 17.9989 16.0223H7.78664C7.69927 16.0223 7.61548 15.9876 7.5537 15.9258C7.49192 15.864 7.45721 15.7802 7.45721 15.6929V5.48063C7.45721 5.39326 7.49192 5.30947 7.5537 5.24769C7.61548 5.18591 7.69927 5.1512 7.78664 5.1512H17.9989C18.0862 5.1512 18.17 5.18591 18.2318 5.24769C18.2936 5.30947 18.3283 5.39326 18.3283 5.48063V15.6929C18.3288 15.7788 18.2957 15.8616 18.2361 15.9235Z" fill="white"/>
<path d="M16.6812 18.3283H5.48063C5.39326 18.3283 5.30947 18.2936 5.24769 18.2318C5.18591 18.17 5.1512 18.0862 5.1512 17.9989V6.79834C5.1512 6.6236 5.08179 6.45602 4.95823 6.33246C4.83467 6.2089 4.66709 6.13949 4.49235 6.13949C4.31761 6.13949 4.15003 6.2089 4.02647 6.33246C3.90291 6.45602 3.8335 6.6236 3.8335 6.79834V18.3283C3.8335 18.6778 3.97233 19.0129 4.21944 19.26C4.46656 19.5072 4.80173 19.646 5.1512 19.646H16.6812C16.8559 19.646 17.0235 19.5766 17.147 19.453C17.2706 19.3295 17.34 19.1619 17.34 18.9871C17.34 18.8124 17.2706 18.6448 17.147 18.5213C17.0235 18.3977 16.8559 18.3283 16.6812 18.3283Z" fill="white"/>
</svg>
