<svg width="11" height="12" viewBox="0 0 11 12" fill="none" xmlns="http://www.w3.org/2000/svg">
<path d="M8.1091 0.456489L7.80196 0H5.94329V4.11139L5.93696 8.1273C5.94013 8.15714 5.94329 8.18996 5.94329 8.21979C5.94329 9.22526 5.07571 10.0457 4.00547 10.0457C2.93523 10.0457 2.06765 9.22824 2.06765 8.21979C2.06765 7.21432 2.93523 6.39383 4.00547 6.39383C4.22712 6.39383 4.44243 6.43262 4.64191 6.49826V4.49329C4.4361 4.46047 4.22395 4.44257 4.00547 4.44257C1.7985 4.44555 0 6.14023 0 8.22278C0 10.3053 1.7985 12 4.00864 12C6.21877 12 8.01727 10.3053 8.01727 8.22278V3.44605C8.81836 4.20089 9.85377 4.93784 11 5.17355V3.12382C9.75561 2.60467 8.51756 1.07111 8.1091 0.456489Z" fill="white"/>
</svg>
