<svg width="239" height="19" viewBox="0 0 239 19" fill="none" xmlns="http://www.w3.org/2000/svg">
<rect width="38.76" height="19" rx="9.5" fill="black" fill-opacity="0.3"/>
<path d="M7.86735 12.8398C7.32069 12.8398 6.83069 12.6998 6.39735 12.4198C5.97069 12.1398 5.63069 11.7331 5.37735 11.1998C5.13069 10.6664 5.00735 10.0198 5.00735 9.25977C5.00735 8.49977 5.13069 7.8531 5.37735 7.31977C5.63069 6.78643 5.97069 6.37977 6.39735 6.09977C6.83069 5.81977 7.32069 5.67977 7.86735 5.67977C8.40735 5.67977 8.89402 5.81977 9.32735 6.09977C9.76069 6.37977 10.1007 6.78643 10.3474 7.31977C10.594 7.8531 10.7174 8.49977 10.7174 9.25977C10.7174 10.0198 10.594 10.6664 10.3474 11.1998C10.1007 11.7331 9.76069 12.1398 9.32735 12.4198C8.89402 12.6998 8.40735 12.8398 7.86735 12.8398ZM7.86735 11.9498C8.23402 11.9498 8.55402 11.8498 8.82735 11.6498C9.10735 11.4498 9.32402 11.1498 9.47735 10.7498C9.63735 10.3498 9.71735 9.8531 9.71735 9.25977C9.71735 8.66643 9.63735 8.16977 9.47735 7.76977C9.32402 7.36977 9.10735 7.06977 8.82735 6.86977C8.55402 6.66977 8.23402 6.56977 7.86735 6.56977C7.50069 6.56977 7.17735 6.66977 6.89735 6.86977C6.61735 7.06977 6.39735 7.36977 6.23735 7.76977C6.08402 8.16977 6.00735 8.66643 6.00735 9.25977C6.00735 9.8531 6.08402 10.3498 6.23735 10.7498C6.39735 11.1498 6.61735 11.4498 6.89735 11.6498C7.17735 11.8498 7.50069 11.9498 7.86735 11.9498ZM14.5373 12.8398C13.9906 12.8398 13.5006 12.6998 13.0673 12.4198C12.6406 12.1398 12.3006 11.7331 12.0473 11.1998C11.8006 10.6664 11.6773 10.0198 11.6773 9.25977C11.6773 8.49977 11.8006 7.8531 12.0473 7.31977C12.3006 6.78643 12.6406 6.37977 13.0673 6.09977C13.5006 5.81977 13.9906 5.67977 14.5373 5.67977C15.0773 5.67977 15.5639 5.81977 15.9973 6.09977C16.4306 6.37977 16.7706 6.78643 17.0173 7.31977C17.2639 7.8531 17.3873 8.49977 17.3873 9.25977C17.3873 10.0198 17.2639 10.6664 17.0173 11.1998C16.7706 11.7331 16.4306 12.1398 15.9973 12.4198C15.5639 12.6998 15.0773 12.8398 14.5373 12.8398ZM14.5373 11.9498C14.9039 11.9498 15.2239 11.8498 15.4973 11.6498C15.7773 11.4498 15.9939 11.1498 16.1473 10.7498C16.3073 10.3498 16.3873 9.8531 16.3873 9.25977C16.3873 8.66643 16.3073 8.16977 16.1473 7.76977C15.9939 7.36977 15.7773 7.06977 15.4973 6.86977C15.2239 6.66977 14.9039 6.56977 14.5373 6.56977C14.1706 6.56977 13.8473 6.66977 13.5673 6.86977C13.2873 7.06977 13.0673 7.36977 12.9073 7.76977C12.7539 8.16977 12.6773 8.66643 12.6773 9.25977C12.6773 9.8531 12.7539 10.3498 12.9073 10.7498C13.0673 11.1498 13.2873 11.4498 13.5673 11.6498C13.8473 11.8498 14.1706 11.9498 14.5373 11.9498ZM19.0072 8.77977C18.8205 8.77977 18.6605 8.71643 18.5272 8.58977C18.3939 8.45643 18.3272 8.28977 18.3272 8.08977C18.3272 7.88977 18.3939 7.72643 18.5272 7.59977C18.6605 7.4731 18.8205 7.40977 19.0072 7.40977C19.1872 7.40977 19.3405 7.4731 19.4672 7.59977C19.6005 7.72643 19.6672 7.88977 19.6672 8.08977C19.6672 8.28977 19.6005 8.45643 19.4672 8.58977C19.3405 8.71643 19.1872 8.77977 19.0072 8.77977ZM19.0072 12.8198C18.8205 12.8198 18.6605 12.7564 18.5272 12.6298C18.3939 12.4964 18.3272 12.3298 18.3272 12.1298C18.3272 11.9298 18.3939 11.7664 18.5272 11.6398C18.6605 11.5131 18.8205 11.4498 19.0072 11.4498C19.1872 11.4498 19.3405 11.5131 19.4672 11.6398C19.6005 11.7664 19.6672 11.9298 19.6672 12.1298C19.6672 12.3298 19.6005 12.4964 19.4672 12.6298C19.3405 12.7564 19.1872 12.8198 19.0072 12.8198ZM23.4728 12.8398C22.9262 12.8398 22.4362 12.6998 22.0028 12.4198C21.5762 12.1398 21.2362 11.7331 20.9828 11.1998C20.7362 10.6664 20.6128 10.0198 20.6128 9.25977C20.6128 8.49977 20.7362 7.8531 20.9828 7.31977C21.2362 6.78643 21.5762 6.37977 22.0028 6.09977C22.4362 5.81977 22.9262 5.67977 23.4728 5.67977C24.0128 5.67977 24.4995 5.81977 24.9328 6.09977C25.3662 6.37977 25.7062 6.78643 25.9528 7.31977C26.1995 7.8531 26.3228 8.49977 26.3228 9.25977C26.3228 10.0198 26.1995 10.6664 25.9528 11.1998C25.7062 11.7331 25.3662 12.1398 24.9328 12.4198C24.4995 12.6998 24.0128 12.8398 23.4728 12.8398ZM23.4728 11.9498C23.8395 11.9498 24.1595 11.8498 24.4328 11.6498C24.7128 11.4498 24.9295 11.1498 25.0828 10.7498C25.2428 10.3498 25.3228 9.8531 25.3228 9.25977C25.3228 8.66643 25.2428 8.16977 25.0828 7.76977C24.9295 7.36977 24.7128 7.06977 24.4328 6.86977C24.1595 6.66977 23.8395 6.56977 23.4728 6.56977C23.1062 6.56977 22.7828 6.66977 22.5028 6.86977C22.2228 7.06977 22.0028 7.36977 21.8428 7.76977C21.6895 8.16977 21.6128 8.66643 21.6128 9.25977C21.6128 9.8531 21.6895 10.3498 21.8428 10.7498C22.0028 11.1498 22.2228 11.4498 22.5028 11.6498C22.7828 11.8498 23.1062 11.9498 23.4728 11.9498ZM30.1427 12.8398C29.5961 12.8398 29.1061 12.6998 28.6727 12.4198C28.2461 12.1398 27.9061 11.7331 27.6527 11.1998C27.4061 10.6664 27.2827 10.0198 27.2827 9.25977C27.2827 8.49977 27.4061 7.8531 27.6527 7.31977C27.9061 6.78643 28.2461 6.37977 28.6727 6.09977C29.1061 5.81977 29.5961 5.67977 30.1427 5.67977C30.6827 5.67977 31.1694 5.81977 31.6027 6.09977C32.0361 6.37977 32.3761 6.78643 32.6227 7.31977C32.8694 7.8531 32.9927 8.49977 32.9927 9.25977C32.9927 10.0198 32.8694 10.6664 32.6227 11.1998C32.3761 11.7331 32.0361 12.1398 31.6027 12.4198C31.1694 12.6998 30.6827 12.8398 30.1427 12.8398ZM30.1427 11.9498C30.5094 11.9498 30.8294 11.8498 31.1027 11.6498C31.3827 11.4498 31.5994 11.1498 31.7527 10.7498C31.9127 10.3498 31.9927 9.8531 31.9927 9.25977C31.9927 8.66643 31.9127 8.16977 31.7527 7.76977C31.5994 7.36977 31.3827 7.06977 31.1027 6.86977C30.8294 6.66977 30.5094 6.56977 30.1427 6.56977C29.7761 6.56977 29.4527 6.66977 29.1727 6.86977C28.8927 7.06977 28.6727 7.36977 28.5127 7.76977C28.3594 8.16977 28.2827 8.66643 28.2827 9.25977C28.2827 9.8531 28.3594 10.3498 28.5127 10.7498C28.6727 11.1498 28.8927 11.4498 29.1727 11.6498C29.4527 11.8498 29.7761 11.9498 30.1427 11.9498Z" fill="white"/>
<path d="M57.76 9.88086H237.135" stroke="white" stroke-width="3" stroke-linecap="round"/>
<path d="M60.04 12.1602L60.04 7.60016" stroke="white" stroke-width="3" stroke-linecap="round"/>
</svg>
