<svg width="30" height="30" viewBox="0 0 30 30" fill="none" xmlns="http://www.w3.org/2000/svg">
<path d="M11.25 3.75C11.25 3.05964 11.8096 2.5 12.5 2.5H17.5C18.1904 2.5 18.75 3.05964 18.75 3.75V5H25C25.6904 5 26.25 5.55964 26.25 6.25C26.25 6.94036 25.6904 7.5 25 7.5H5C4.30964 7.5 3.75 6.94036 3.75 6.25C3.75 5.55964 4.30964 5 5 5H11.25V3.75Z" fill="#333333"/>
<path d="M7.5 10C8.19036 10 8.75 10.5596 8.75 11.25V23.75C8.75 24.4404 9.30964 25 10 25H20C20.6904 25 21.25 24.4404 21.25 23.75V11.25C21.25 10.5596 21.8096 10 22.5 10C23.1904 10 23.75 10.5596 23.75 11.25V23.75C23.75 25.8211 22.0711 27.5 20 27.5H10C7.92893 27.5 6.25 25.8211 6.25 23.75V11.25C6.25 10.5596 6.80964 10 7.5 10Z" fill="#333333"/>
<path d="M11.25 13.75C11.25 13.0596 11.8096 12.5 12.5 12.5C13.1904 12.5 13.75 13.0596 13.75 13.75V21.25C13.75 21.9404 13.1904 22.5 12.5 22.5C11.8096 22.5 11.25 21.9404 11.25 21.25V13.75Z" fill="#333333"/>
<path d="M17.5 12.5C16.8096 12.5 16.25 13.0596 16.25 13.75V21.25C16.25 21.9404 16.8096 22.5 17.5 22.5C18.1904 22.5 18.75 21.9404 18.75 21.25V13.75C18.75 13.0596 18.1904 12.5 17.5 12.5Z" fill="#333333"/>
</svg>
