<svg width="20" height="20" viewBox="0 0 20 20" fill="none" xmlns="http://www.w3.org/2000/svg">
<path d="M20 10C20 15.5228 15.5228 20 10 20C4.47715 20 0 15.5228 0 10C0 4.47715 4.47715 0 10 0C15.5228 0 20 4.47715 20 10Z" fill="#F8F8F8"/>
<path d="M8.25 4.74984C8.25 4.42767 8.51117 4.1665 8.83333 4.1665H11.1667C11.4888 4.1665 11.75 4.42767 11.75 4.74984V5.33317H14.6667C14.9888 5.33317 15.25 5.59434 15.25 5.9165C15.25 6.23867 14.9888 6.49984 14.6667 6.49984H5.33333C5.01117 6.49984 4.75 6.23867 4.75 5.9165C4.75 5.59434 5.01117 5.33317 5.33333 5.33317H8.25V4.74984Z" fill="#BA8545"/>
<path d="M6.5 7.6665C6.82217 7.6665 7.08333 7.92767 7.08333 8.24984V14.0832C7.08333 14.4053 7.3445 14.6665 7.66667 14.6665H12.3333C12.6555 14.6665 12.9167 14.4053 12.9167 14.0832V8.24984C12.9167 7.92767 13.1778 7.6665 13.5 7.6665C13.8222 7.6665 14.0833 7.92767 14.0833 8.24984V14.0832C14.0833 15.0497 13.2998 15.8332 12.3333 15.8332H7.66667C6.70017 15.8332 5.91667 15.0497 5.91667 14.0832V8.24984C5.91667 7.92767 6.17783 7.6665 6.5 7.6665Z" fill="#BA8545"/>
<path d="M8.25 9.4165C8.25 9.09434 8.51117 8.83317 8.83333 8.83317C9.1555 8.83317 9.41667 9.09434 9.41667 9.4165V12.9165C9.41667 13.2387 9.1555 13.4998 8.83333 13.4998C8.51117 13.4998 8.25 13.2387 8.25 12.9165V9.4165Z" fill="#BA8545"/>
<path d="M11.1667 8.83317C10.8445 8.83317 10.5833 9.09434 10.5833 9.4165V12.9165C10.5833 13.2387 10.8445 13.4998 11.1667 13.4998C11.4888 13.4998 11.75 13.2387 11.75 12.9165V9.4165C11.75 9.09434 11.4888 8.83317 11.1667 8.83317Z" fill="#BA8545"/>
</svg>
