<svg width="19" height="19" viewBox="0 0 19 19" fill="none" xmlns="http://www.w3.org/2000/svg">
<path d="M7.125 2.37516C7.125 1.93794 7.47944 1.5835 7.91667 1.5835H11.0833C11.5206 1.5835 11.875 1.93794 11.875 2.37516V3.16683H15.8333C16.2706 3.16683 16.625 3.52127 16.625 3.9585C16.625 4.39572 16.2706 4.75016 15.8333 4.75016H3.16667C2.72944 4.75016 2.375 4.39572 2.375 3.9585C2.375 3.52127 2.72944 3.16683 3.16667 3.16683H7.125V2.37516Z" fill="#333333"/>
<path d="M4.75 6.3335C5.18723 6.3335 5.54167 6.68794 5.54167 7.12516V15.0418C5.54167 15.4791 5.89611 15.8335 6.33333 15.8335H12.6667C13.1039 15.8335 13.4583 15.4791 13.4583 15.0418V7.12516C13.4583 6.68794 13.8128 6.3335 14.25 6.3335C14.6872 6.3335 15.0417 6.68794 15.0417 7.12516V15.0418C15.0417 16.3535 13.9783 17.4168 12.6667 17.4168H6.33333C5.02166 17.4168 3.95833 16.3535 3.95833 15.0418V7.12516C3.95833 6.68794 4.31277 6.3335 4.75 6.3335Z" fill="#333333"/>
<path d="M7.125 8.7085C7.125 8.27127 7.47944 7.91683 7.91667 7.91683C8.35389 7.91683 8.70833 8.27127 8.70833 8.7085V13.4585C8.70833 13.8957 8.35389 14.2502 7.91667 14.2502C7.47944 14.2502 7.125 13.8957 7.125 13.4585V8.7085Z" fill="#333333"/>
<path d="M11.0833 7.91683C10.6461 7.91683 10.2917 8.27127 10.2917 8.7085V13.4585C10.2917 13.8957 10.6461 14.2502 11.0833 14.2502C11.5206 14.2502 11.875 13.8957 11.875 13.4585V8.7085C11.875 8.27127 11.5206 7.91683 11.0833 7.91683Z" fill="#333333"/>
</svg>
