<svg width="44" height="44" viewBox="0 0 44 44" fill="none" xmlns="http://www.w3.org/2000/svg">
<circle cx="22" cy="22" r="22" fill="#818283"/>
<path d="M20.125 14.3747C20.125 13.9374 20.4794 13.583 20.9167 13.583H24.0833C24.5206 13.583 24.875 13.9374 24.875 14.3747V15.1663H28.8333C29.2706 15.1663 29.625 15.5208 29.625 15.958C29.625 16.3952 29.2706 16.7497 28.8333 16.7497H16.1667C15.7294 16.7497 15.375 16.3952 15.375 15.958C15.375 15.5208 15.7294 15.1663 16.1667 15.1663H20.125V14.3747Z" fill="white"/>
<path d="M17.75 18.333C18.1872 18.333 18.5417 18.6874 18.5417 19.1247V27.0413C18.5417 27.4786 18.8961 27.833 19.3333 27.833H25.6667C26.1039 27.833 26.4583 27.4786 26.4583 27.0413V19.1247C26.4583 18.6874 26.8128 18.333 27.25 18.333C27.6872 18.333 28.0417 18.6874 28.0417 19.1247V27.0413C28.0417 28.353 26.9783 29.4163 25.6667 29.4163H19.3333C18.0217 29.4163 16.9583 28.353 16.9583 27.0413V19.1247C16.9583 18.6874 17.3128 18.333 17.75 18.333Z" fill="white"/>
<path d="M20.125 20.708C20.125 20.2708 20.4794 19.9163 20.9167 19.9163C21.3539 19.9163 21.7083 20.2708 21.7083 20.708V25.458C21.7083 25.8952 21.3539 26.2497 20.9167 26.2497C20.4794 26.2497 20.125 25.8952 20.125 25.458V20.708Z" fill="white"/>
<path d="M24.0833 19.9163C23.6461 19.9163 23.2917 20.2708 23.2917 20.708V25.458C23.2917 25.8952 23.6461 26.2497 24.0833 26.2497C24.5206 26.2497 24.875 25.8952 24.875 25.458V20.708C24.875 20.2708 24.5206 19.9163 24.0833 19.9163Z" fill="white"/>
</svg>
