<svg width="47" height="61" viewBox="0 0 47 61" fill="none" xmlns="http://www.w3.org/2000/svg">
<g filter="url(#filter0_d_2389_10183)">
<rect x="16" y="1" width="18.2105" height="30" rx="8" stroke="white" stroke-width="2"/>
<path d="M28.735 15.9023C29.334 16.2976 29.334 17.1765 28.735 17.5717L23.8139 20.8188C23.149 21.2575 22.2632 20.7807 22.2632 19.9841V13.4899C22.2632 12.6934 23.149 12.2166 23.8139 12.6553L28.735 15.9023Z" fill="white"/>
</g>
<g filter="url(#filter1_d_2389_10183)">
<path d="M5.87694 42.8518L8.56774 50.5315L8.67392 50.5307L11.2457 42.8103L12.7876 42.7984L9.4584 52.279L7.81037 52.2917L4.33508 42.8637L5.87694 42.8518ZM14.8951 52.237L14.8403 45.1463L16.2206 45.1356L16.2754 52.2263L14.8951 52.237ZM15.5289 44.0468C15.2889 44.0487 15.0821 43.9702 14.9085 43.8115C14.738 43.6497 14.6518 43.4565 14.6501 43.2318C14.6483 43.0041 14.7315 42.8096 14.8995 42.6482C15.0706 42.4838 15.2762 42.4006 15.5162 42.3988C15.7563 42.3969 15.9615 42.4769 16.1321 42.6387C16.3057 42.7974 16.3933 42.9906 16.3951 43.2184C16.3968 43.443 16.3121 43.6376 16.1411 43.802C15.973 43.9633 15.769 44.0449 15.5289 44.0468ZM21.5678 52.3239C20.9953 52.3283 20.4833 52.1861 20.0317 51.8972C19.5832 51.6052 19.2291 51.1878 18.9695 50.6451C18.7129 50.0992 18.5816 49.4431 18.5757 48.6768C18.5698 47.9105 18.6924 47.254 18.9437 46.7073C19.198 46.1606 19.5487 45.7408 19.9958 45.4481C20.4429 45.1553 20.9511 45.0067 21.5204 45.0023C21.9605 44.9989 22.315 45.07 22.5839 45.2157C22.8558 45.3583 23.0664 45.5259 23.2156 45.7186C23.3679 45.9114 23.4862 46.0813 23.5704 46.2284L23.6535 46.2277L23.6264 42.7147L25.0067 42.704L25.0797 52.1583L23.7318 52.1687L23.7232 51.0654L23.6078 51.0663C23.5259 51.2177 23.4072 51.391 23.2517 51.5861C23.0994 51.7812 22.8883 51.9521 22.6186 52.0988C22.3489 52.2455 21.9986 52.3206 21.5678 52.3239ZM21.8633 51.1444C22.2603 51.1413 22.595 51.0341 22.8673 50.8227C23.1426 50.6082 23.3496 50.3127 23.4883 49.9361C23.63 49.5595 23.699 49.122 23.6951 48.6234C23.6913 48.131 23.6172 47.7007 23.4728 47.3325C23.3284 46.9643 23.1184 46.6781 22.8429 46.474C22.5674 46.27 22.2281 46.1695 21.8249 46.1726C21.4095 46.1758 21.0641 46.2862 20.7888 46.5038C20.5134 46.7213 20.3064 47.0168 20.1677 47.3903C20.0321 47.7638 19.9661 48.1844 19.9697 48.6522C19.9734 49.1261 20.0475 49.5518 20.192 49.9293C20.3365 50.3067 20.5481 50.6052 20.8267 50.8246C21.1085 51.041 21.454 51.1475 21.8633 51.1444ZM30.8868 52.2565C30.1882 52.2619 29.5854 52.1173 29.0784 51.8227C28.5744 51.525 28.1834 51.1048 27.9053 50.5622C27.6302 50.0165 27.4898 49.3758 27.4842 48.6403C27.4785 47.914 27.609 47.2728 27.8756 46.7168C28.1452 46.1607 28.5235 45.7253 29.0104 45.4107C29.5004 45.0961 30.0747 44.9362 30.7333 44.9311C31.1334 44.9281 31.5217 44.9912 31.8982 45.1207C32.2746 45.2501 32.6132 45.4552 32.9139 45.7361C33.2147 46.0169 33.4529 46.3828 33.6288 46.8339C33.8046 47.2819 33.895 47.8275 33.8999 48.4707L33.9037 48.96L28.2672 49.0036L28.2592 47.9695L32.5431 47.9364C32.5403 47.5733 32.464 47.2522 32.3141 46.9733C32.1642 46.6913 31.9547 46.4698 31.6857 46.3088C31.4198 46.1477 31.1083 46.0685 30.7513 46.0713C30.3636 46.0743 30.0258 46.1723 29.738 46.3654C29.4532 46.5553 29.2335 46.8032 29.0789 47.1091C28.9274 47.4119 28.853 47.7403 28.8557 48.0942L28.8619 48.902C28.8656 49.376 28.9518 49.7785 29.1206 50.1096C29.2924 50.4407 29.5298 50.6927 29.8327 50.8658C30.1357 51.0358 30.4887 51.1193 30.8919 51.1162C31.1535 51.1142 31.3917 51.0754 31.6066 50.9999C31.8214 50.9213 32.0067 50.806 32.1625 50.6539C32.3183 50.5019 32.4369 50.3148 32.5183 50.0926L33.8265 50.3179C33.7248 50.7034 33.5397 51.0419 33.2711 51.3332C33.0056 51.6215 32.6703 51.8473 32.2653 52.0104C31.8634 52.1705 31.4039 52.2525 30.8868 52.2565ZM39.2272 52.1921C38.5625 52.1972 37.9812 52.0494 37.4833 51.7485C36.9855 51.4477 36.5975 51.0244 36.3194 50.4787C36.0412 49.933 35.8993 49.2939 35.8937 48.5615C35.888 47.8259 36.02 47.1817 36.2896 46.6287C36.5593 46.0757 36.9407 45.6449 37.4338 45.3364C37.9269 45.0279 38.5059 44.8711 39.1706 44.866C39.8354 44.8608 40.4167 45.0087 40.9145 45.3095C41.4124 45.6104 41.8004 46.0352 42.0785 46.584C42.3567 47.1327 42.4986 47.7749 42.5043 48.5104C42.5099 49.2429 42.3779 49.8841 42.1083 50.434C41.8386 50.9839 41.4572 51.4131 40.9641 51.7216C40.4709 52.0301 39.892 52.187 39.2272 52.1921ZM39.2229 51.0334C39.6538 51.03 40.0099 50.9134 40.2912 50.6835C40.5726 50.4535 40.7796 50.1488 40.912 49.7692C41.0476 49.3896 41.1136 48.972 41.1101 48.5166C41.1066 48.0642 41.0342 47.6492 40.8927 47.2718C40.7544 46.8912 40.5427 46.5866 40.2578 46.358C39.9729 46.1293 39.615 46.0167 39.1842 46.02C38.7502 46.0234 38.391 46.1416 38.1066 46.3746C37.8253 46.6076 37.6168 46.9154 37.4813 47.2981C37.3488 47.6777 37.2843 48.0937 37.2878 48.5461C37.2913 49.0016 37.3622 49.4181 37.5006 49.7956C37.642 50.173 37.8551 50.4745 38.14 50.7001C38.428 50.9256 38.789 51.0367 39.2229 51.0334Z" fill="white"/>
</g>
<defs>
<filter id="filter0_d_2389_10183" x="11" y="0" width="28.2104" height="40" filterUnits="userSpaceOnUse" color-interpolation-filters="sRGB">
<feFlood flood-opacity="0" result="BackgroundImageFix"/>
<feColorMatrix in="SourceAlpha" type="matrix" values="0 0 0 0 0 0 0 0 0 0 0 0 0 0 0 0 0 0 127 0" result="hardAlpha"/>
<feOffset dy="4"/>
<feGaussianBlur stdDeviation="2"/>
<feComposite in2="hardAlpha" operator="out"/>
<feColorMatrix type="matrix" values="0 0 0 0 0 0 0 0 0 0 0 0 0 0 0 0 0 0 0.25 0"/>
<feBlend mode="normal" in2="BackgroundImageFix" result="effect1_dropShadow_2389_10183"/>
<feBlend mode="normal" in="SourceGraphic" in2="effect1_dropShadow_2389_10183" result="shape"/>
</filter>
<filter id="filter1_d_2389_10183" x="0.332031" y="42.1907" width="46.2007" height="18.2705" filterUnits="userSpaceOnUse" color-interpolation-filters="sRGB">
<feFlood flood-opacity="0" result="BackgroundImageFix"/>
<feColorMatrix in="SourceAlpha" type="matrix" values="0 0 0 0 0 0 0 0 0 0 0 0 0 0 0 0 0 0 127 0" result="hardAlpha"/>
<feOffset dy="4"/>
<feGaussianBlur stdDeviation="2"/>
<feComposite in2="hardAlpha" operator="out"/>
<feColorMatrix type="matrix" values="0 0 0 0 0 0 0 0 0 0 0 0 0 0 0 0 0 0 0.25 0"/>
<feBlend mode="normal" in2="BackgroundImageFix" result="effect1_dropShadow_2389_10183"/>
<feBlend mode="normal" in="SourceGraphic" in2="effect1_dropShadow_2389_10183" result="shape"/>
</filter>
</defs>
</svg>
