<svg width="14" height="19" viewBox="0 0 14 19" fill="none" xmlns="http://www.w3.org/2000/svg">
<rect x="2" y="0.5" width="10" height="18" rx="0.741379" stroke="black"/>
<path d="M9.1645 8.87983C9.5838 9.1565 9.5838 9.7717 9.1645 10.0484L6.04058 12.1096C5.5087 12.4606 4.79999 12.0791 4.79999 11.4419L4.79999 7.48632C4.79999 6.84908 5.5087 6.46763 6.04058 6.81858L9.1645 8.87983Z" fill="black"/>
<path d="M13 1C13.5523 1 14 1.44772 14 2V17C14 17.5523 13.5523 18 13 18V1Z" fill="black"/>
<path d="M1 1C0.447715 1 0 1.44772 0 2V17C0 17.5523 0.447715 18 1 18V1Z" fill="black"/>
</svg>
